<svg height="320" width="320" shapeRendering="crispEdges" viewBox="0 0 25 25" style="width: 320px; height: 320px;"><path fill="#fff" d="M0,0 h25v25H0z"></path><path fill="#000" d="M0 0h7v1H0zM8 0h1v1H8zM11 0h3v1H11zM18,0 h7v1H18zM0 1h1v1H0zM6 1h1v1H6zM9 1h2v1H9zM14 1h1v1H14zM16 1h1v1H16zM18 1h1v1H18zM24,1 h1v1H24zM0 2h1v1H0zM2 2h3v1H2zM6 2h1v1H6zM10 2h1v1H10zM12 2h2v1H12zM18 2h1v1H18zM20 2h3v1H20zM24,2 h1v1H24zM0 3h1v1H0zM2 3h3v1H2zM6 3h1v1H6zM12 3h2v1H12zM15 3h2v1H15zM18 3h1v1H18zM20 3h3v1H20zM24,3 h1v1H24zM0 4h1v1H0zM2 4h3v1H2zM6 4h1v1H6zM9 4h1v1H9zM11 4h1v1H11zM13 4h2v1H13zM18 4h1v1H18zM20 4h3v1H20zM24,4 h1v1H24zM0 5h1v1H0zM6 5h1v1H6zM10 5h1v1H10zM12 5h3v1H12zM18 5h1v1H18zM24,5 h1v1H24zM0 6h7v1H0zM8 6h1v1H8zM10 6h1v1H10zM12 6h1v1H12zM14 6h1v1H14zM16 6h1v1H16zM18,6 h7v1H18zM8 7h1v1H8zM10 7h2v1H10zM13 7h1v1H13zM16 7h1v1H16zM0 8h2v1H0zM3 8h2v1H3zM6 8h1v1H6zM9 8h4v1H9zM14 8h3v1H14zM18 8h1v1H18zM24,8 h1v1H24zM1 9h1v1H1zM4 9h2v1H4zM7 9h1v1H7zM9 9h1v1H9zM12 9h1v1H12zM14 9h2v1H14zM19 9h5v1H19zM2 10h7v1H2zM10 10h6v1H10zM17 10h1v1H17zM20 10h2v1H20zM24,10 h1v1H24zM0 11h1v1H0zM5 11h1v1H5zM9 11h2v1H9zM12 11h1v1H12zM15 11h1v1H15zM18 11h2v1H18zM21,11 h4v1H21zM0 12h2v1H0zM3 12h1v1H3zM6 12h1v1H6zM8 12h2v1H8zM11 12h1v1H11zM16 12h1v1H16zM18 12h1v1H18zM24,12 h1v1H24zM0 13h1v1H0zM4 13h2v1H4zM7 13h1v1H7zM11 13h1v1H11zM14 13h3v1H14zM20 13h1v1H20zM23 13h1v1H23zM0 14h5v1H0zM6 14h3v1H6zM10 14h1v1H10zM14 14h2v1H14zM17 14h1v1H17zM20,14 h5v1H20zM0 15h1v1H0zM3 15h3v1H3zM15 15h1v1H15zM19 15h1v1H19zM21 15h2v1H21zM24,15 h1v1H24zM0 16h1v1H0zM2 16h1v1H2zM6 16h3v1H6zM11 16h3v1H11zM16 16h5v1H16zM22 16h2v1H22zM8 17h2v1H8zM14 17h1v1H14zM16 17h1v1H16zM20 17h1v1H20zM22 17h2v1H22zM0 18h7v1H0zM10 18h4v1H10zM16 18h1v1H16zM18 18h1v1H18zM20 18h1v1H20zM24,18 h1v1H24zM0 19h1v1H0zM6 19h1v1H6zM10 19h1v1H10zM13 19h4v1H13zM20 19h1v1H20zM23 19h1v1H23zM0 20h1v1H0zM2 20h3v1H2zM6 20h1v1H6zM8 20h3v1H8zM12 20h1v1H12zM14 20h7v1H14zM0 21h1v1H0zM2 21h3v1H2zM6 21h1v1H6zM8 21h1v1H8zM11 21h1v1H11zM14 21h1v1H14zM17 21h2v1H17zM23,21 h2v1H23zM0 22h1v1H0zM2 22h3v1H2zM6 22h1v1H6zM10 22h2v1H10zM13 22h2v1H13zM16 22h1v1H16zM20,22 h5v1H20zM0 23h1v1H0zM6 23h1v1H6zM8 23h1v1H8zM10 23h1v1H10zM14 23h1v1H14zM17 23h1v1H17zM19 23h2v1H19zM22,23 h3v1H22zM0 24h7v1H0zM8 24h2v1H8zM12 24h1v1H12zM15 24h2v1H15zM18 24h1v1H18zM21 24h1v1H21zM24,24 h1v1H24z"></path></svg>