<svg xmlns="http://www.w3.org/2000/svg" xmlns:xlink="http://www.w3.org/1999/xlink" version="1.1" x="0px" y="0px" viewBox="1 -1 100 100" style="enable-background:new 1 -1 100 100;" xml:space="preserve"><title>01</title><g><path d="M21.5,56h59v6.8c-3.2,0.5-5.6,3.3-5.6,6.5c0,3.3,2.4,6.1,5.6,6.5c3.6,0.6,7-1.9,7.5-5.5   c0.6-3.6-1.9-7-5.5-7.5V54H52v-9h16.9c6.4,0,11.6-5.2,11.6-11.6c0-3.1-1.2-6.1-3.4-8.3c-0.9-0.8-1.8-1.5-2.9-2.1   c-1.9-5.5-7.1-9.3-12.9-9.4l-2,0.2c-2.9-5.6-8.7-9.2-15-9.2c-9.4-0.1-17,7.5-17.1,16.9c0,0.6,0,1.2,0.1,1.8   c-3.6,2.1-5.8,5.9-5.8,10.1c0,6.4,5.2,11.6,11.6,11.6H50v9H19.5v8.8c-2.9,0.4-5.1,2.7-5.5,5.5c-0.6,3.6,1.9,7,5.5,7.5   s7-1.9,7.5-5.5s-1.9-7-5.5-7.5V56z M68.9,42.9H33.1c-2.6,0-5-1-6.8-2.8c-0.7-0.7-1.3-1.6-1.8-2.5c-2.4-4.8-0.5-10.6,4.3-13l0.6-0.3   v-0.7c-0.1-0.7-0.1-1.5-0.1-2.2c0-5.8,3.4-11,8.7-13.5c7.5-3.5,16.4-0.2,19.9,7.3l0.3,0.7H59c0.8-0.2,1.6-0.3,2.4-0.3   c5.1,0.1,9.6,3.5,11.1,8.4v0.4l0.4,0.2c1.1,0.5,2,1.1,2.8,2c1.8,1.8,2.8,4.2,2.8,6.8C78.4,38.7,74.2,42.9,68.9,42.9z M81.5,64.7   c2.5,0,4.6,2.1,4.6,4.6c0,2.5-2.1,4.6-4.6,4.6c-2.5,0-4.6-2.1-4.6-4.6C76.9,66.8,79,64.7,81.5,64.7z M20.5,64.7   c2.5,0,4.6,2.1,4.6,4.6c0,2.5-2.1,4.6-4.6,4.6c-2.5,0-4.6-2.1-4.6-4.6C15.9,66.8,18,64.8,20.5,64.7z"></path><path d="M70.2,93.3h22.6v-4.7c-0.1-5.5-4.6-10-10.1-10h-2.4c-5.5,0-10,4.5-10.1,10V93.3z M72.2,88.6   c0,0,0-0.1,0-0.1c0.1-4.4,3.7-8,8.1-7.9h2.4c0,0,0.1,0,0.1,0c4.4,0,8,3.6,8,8v2.7H72.2V88.6z"></path><path d="M9.2,93.3h22.6l0-4.7c-0.1-5.5-4.6-10-10.1-10h-2.4c-5.5,0-10,4.5-10.1,10V93.3z M11.2,88.6   c0,0,0-0.1,0-0.1c0.1-4.4,3.7-8,8.1-7.9h2.4c0,0,0.1,0,0.1,0c4.4,0,8,3.6,8,8l0,2.7H11.2L11.2,88.6z"></path></g></svg>