<svg xmlns="http://www.w3.org/2000/svg" data-name="Layer 1" viewBox="0 0 100 100" x="0px" y="0px"><title>device jadi</title><path d="M15.31,66.21H84.69a.87.87,0,0,0,.87-.87V21.58a.87.87,0,0,0-.87-.87H15.31a.87.87,0,0,0-.87.87V65.34A.87.87,0,0,0,15.31,66.21ZM50,22.11a1.08,1.08,0,1,1-1.08,1.08A1.08,1.08,0,0,1,50,22.11ZM19.12,26a1,1,0,0,1,.95-.95H79.94a1,1,0,0,1,.95.95V60.93a1,1,0,0,1-.95.95H20.06a1,1,0,0,1-.95-.95Z"></path><polygon points="85.4 67.21 14.6 67.21 10.93 69.78 89.08 69.78 85.4 67.21"></polygon><path d="M9.83,70.78v8.51H90.17V70.78ZM58.28,76H41.72V74.06H58.28Z"></path></svg>