<svg xmlns="http://www.w3.org/2000/svg" xmlns:xlink="http://www.w3.org/1999/xlink" version="1.1" x="0px" y="0px" viewBox="0 0 100 100" enable-background="new 0 0 100 100" xml:space="preserve"><g><path fill="none" d="M40.689,81.426c2.645,3.43,5.305,5.913,7.269,7.522V73.446c-3.977,0.134-7.796,0.66-11.445,1.574   C37.728,77.244,39.115,79.383,40.689,81.426z"></path><path fill="none" d="M34.665,71.252c4.226-1.13,8.662-1.775,13.294-1.92V52.814H30.493C30.8,59.44,32.196,65.603,34.665,71.252z"></path><path fill="none" d="M37.578,84.074c-1.658-2.133-3.415-4.763-5.039-7.881c-3.357,1.145-6.555,2.637-9.579,4.481   c5.643,4.98,12.662,8.432,20.41,9.7C41.607,88.754,39.595,86.67,37.578,84.074z"></path><path fill="none" d="M30.444,48.734h17.515V30.668c-4.632-0.145-9.068-0.79-13.293-1.92C32.005,34.835,30.592,41.519,30.444,48.734   z"></path><path fill="none" d="M26.403,52.814H9.189c0.654,9.576,4.61,18.256,10.745,24.905c3.414-2.177,7.033-3.932,10.839-5.268   C28.493,67.092,26.749,60.558,26.403,52.814z"></path><path fill="none" d="M37.578,15.925c2.016-2.594,4.026-4.678,5.789-6.297c-7.746,1.268-14.763,4.718-20.405,9.697   c3.024,1.844,6.222,3.336,9.578,4.481C34.163,20.688,35.92,18.059,37.578,15.925z"></path><path fill="none" d="M40.689,18.574c-1.574,2.043-2.96,4.182-4.174,6.406c3.648,0.914,7.467,1.439,11.444,1.573V11.052   C45.995,12.66,43.334,15.143,40.689,18.574z"></path><path fill="none" d="M30.773,27.548c-3.806-1.336-7.424-3.091-10.838-5.268C13.47,29.286,9.425,38.547,9.113,48.734h17.254   C26.536,40.313,28.344,33.259,30.773,27.548z"></path><path fill="none" d="M62.42,84.074c-2.016,2.596-4.027,4.681-5.79,6.3c7.747-1.268,14.765-4.719,20.408-9.699   c-3.025-1.845-6.222-3.337-9.579-4.482C65.835,79.311,64.077,81.94,62.42,84.074z"></path><path fill="none" d="M63.486,75.02c-3.65-0.915-7.469-1.44-11.447-1.574v15.503c1.963-1.608,4.625-4.092,7.272-7.523   C60.885,79.383,62.271,77.244,63.486,75.02z"></path><path fill="none" d="M69.225,27.548c2.429,5.711,4.237,12.765,4.406,21.186h17.255c-0.312-10.188-4.357-19.448-10.822-26.454   C76.649,24.457,73.031,26.213,69.225,27.548z"></path><path fill="none" d="M69.224,72.452c3.807,1.336,7.426,3.091,10.84,5.267c6.135-6.649,10.091-15.329,10.745-24.905H73.594   C73.249,60.559,71.504,67.092,69.224,72.452z"></path><path fill="none" d="M62.42,15.925c1.657,2.134,3.415,4.764,5.039,7.881c3.357-1.145,6.554-2.636,9.579-4.48   c-5.642-4.979-12.659-8.43-20.405-9.698C58.395,11.247,60.405,13.331,62.42,15.925z"></path><path fill="none" d="M65.303,28.757c-4.217,1.125-8.643,1.767-13.264,1.912v18.066H69.55   C69.379,40.747,67.628,34.098,65.303,28.757z"></path><path fill="none" d="M59.197,18.43c-2.621-3.375-5.229-5.808-7.158-7.388v15.511c3.97-0.134,7.781-0.657,11.423-1.568   C62.073,22.421,60.596,20.231,59.197,18.43z"></path><path fill="none" d="M69.508,52.814H52.039v16.517c4.633,0.145,9.069,0.79,13.296,1.921C67.805,65.604,69.201,59.44,69.508,52.814z   "></path><path d="M94.982,50.6c0.003-0.2,0.015-0.398,0.015-0.599c0-12.293-4.958-23.445-12.974-31.574c-0.118-0.16-0.256-0.294-0.407-0.409   C73.483,9.976,62.313,5.001,49.999,5.001c-12.323,0-23.502,4.983-31.637,13.035c-0.129,0.101-0.246,0.217-0.351,0.352   C9.974,26.52,5,37.689,5,50.001c0,0.214,0.013,0.425,0.016,0.638c-0.003,0.046-0.014,0.09-0.014,0.137   c0,0.079,0.014,0.153,0.023,0.229c0.263,11.881,5.144,22.641,12.928,30.545c0.126,0.177,0.279,0.323,0.445,0.447   c8.131,8.031,19.293,13,31.596,13.001c0,0,0.001,0,0.001,0c0,0,0,0,0.001,0c0.001,0,0.002,0,0.003,0c0,0,0.001,0,0.001,0   c0,0,0,0,0,0s0,0,0,0c12.312,0,23.48-4.974,31.613-13.013c0.156-0.118,0.299-0.255,0.419-0.421   c7.777-7.891,12.659-18.631,12.938-30.493c0.014-0.097,0.03-0.194,0.03-0.294C95,50.716,94.987,50.659,94.982,50.6z M43.366,9.628   c-1.762,1.619-3.773,3.702-5.789,6.297c-1.657,2.134-3.415,4.763-5.038,7.881c-3.356-1.145-6.553-2.636-9.578-4.481   C28.604,14.347,35.621,10.896,43.366,9.628z M19.935,22.28c3.414,2.176,7.032,3.932,10.838,5.268   c-2.429,5.711-4.237,12.765-4.406,21.186H9.113C9.425,38.547,13.47,29.286,19.935,22.28z M9.189,52.814h17.215   c0.345,7.744,2.09,14.277,4.369,19.637c-3.806,1.335-7.425,3.091-10.839,5.268C13.799,71.071,9.843,62.39,9.189,52.814z    M22.96,80.674c3.025-1.844,6.222-3.336,9.579-4.481c1.623,3.118,3.381,5.747,5.039,7.881c2.017,2.596,4.029,4.681,5.792,6.3   C35.622,89.106,28.603,85.655,22.96,80.674z M47.959,88.948c-1.964-1.609-4.624-4.092-7.269-7.522   c-1.574-2.043-2.961-4.182-4.176-6.406c3.649-0.914,7.467-1.44,11.445-1.574V88.948z M47.959,69.332   c-4.632,0.145-9.068,0.79-13.294,1.92c-2.469-5.649-3.865-11.812-4.172-18.437h17.465V69.332z M47.959,48.734H30.444   c0.148-7.215,1.561-13.899,4.221-19.986c4.226,1.13,8.661,1.775,13.293,1.92V48.734z M47.959,26.553   c-3.977-0.134-7.796-0.659-11.444-1.573c1.214-2.224,2.601-4.363,4.174-6.406c2.645-3.431,5.305-5.914,7.269-7.522V26.553z    M77.038,19.326c-3.025,1.844-6.223,3.336-9.579,4.48c-1.623-3.118-3.381-5.747-5.039-7.881c-2.015-2.594-4.025-4.678-5.787-6.297   C64.378,10.897,71.396,14.347,77.038,19.326z M52.039,11.042c1.929,1.579,4.537,4.013,7.158,7.388   c1.4,1.801,2.876,3.991,4.265,6.555c-3.642,0.911-7.454,1.434-11.423,1.568V11.042z M52.039,30.668   c4.621-0.144,9.047-0.786,13.264-1.912c2.325,5.341,4.076,11.991,4.248,19.978H52.039V30.668z M52.039,52.814h17.469   c-0.306,6.626-1.703,12.789-4.173,18.438c-4.227-1.131-8.664-1.776-13.296-1.921V52.814z M52.039,88.949V73.446   c3.978,0.134,7.798,0.66,11.447,1.574c-1.215,2.224-2.601,4.363-4.176,6.406C56.664,84.857,54.002,87.341,52.039,88.949z    M56.63,90.373c1.763-1.619,3.774-3.704,5.79-6.3c1.657-2.133,3.415-4.763,5.039-7.881c3.357,1.145,6.554,2.637,9.579,4.482   C71.395,85.655,64.376,89.105,56.63,90.373z M80.064,77.72c-3.414-2.176-7.033-3.932-10.84-5.267   c2.28-5.36,4.024-11.894,4.37-19.638H90.81C90.156,62.39,86.199,71.071,80.064,77.72z M73.63,48.734   c-0.169-8.421-1.977-15.475-4.406-21.186c3.806-1.335,7.424-3.091,10.839-5.268c6.464,7.006,10.51,16.266,10.822,26.454H73.63z"></path></g></svg>