<svg xmlns="http://www.w3.org/2000/svg" xmlns:xlink="http://www.w3.org/1999/xlink" xml:space="preserve" version="1.1" style="shape-rendering:geometricPrecision;text-rendering:geometricPrecision;image-rendering:optimizeQuality;" viewBox="0 0 10192 10192" x="0px" y="0px" fill-rule="evenodd" clip-rule="evenodd"><defs><style type="text/css">
   
    .fil0 {fill:black}
   
  </style></defs><g><path class="fil0" d="M2565 5701l0 330c-463,64 -448,336 -798,517 -224,115 -811,227 -1042,387 -232,161 -379,370 -486,766 -107,395 -173,1909 -239,2491l1651 0 1285 0 593 0 1585 0 1386 0c-67,-582 -133,-2096 -240,-2491 -106,-396 -254,-605 -485,-766 -232,-160 -818,-272 -1042,-387 -279,-144 -261,-454 -687,-482l0 -374 51 -54c94,-99 145,-215 154,-352l15 -233 3 -1c46,-14 85,-30 114,-54 29,-24 48,-55 70,-117 22,-63 47,-156 64,-239 18,-83 29,-157 33,-221 5,-64 4,-118 -11,-161 -15,-42 -55,-76 -83,-85 -28,-9 -43,-3 -55,-7 -13,-3 6,-10 7,-16l0 -9c3,-3 6,-7 8,-10l0 0c105,-139 184,-410 206,-653 22,-243 -14,-457 -49,-671 -65,41 -131,82 -251,18 -119,-65 -294,-235 -492,-353 -199,-118 -422,-184 -653,-173 -230,11 -466,99 -601,215 -135,116 -168,260 -200,404 -105,-3 -210,-5 -286,118 -75,124 -122,373 -104,592 18,219 100,407 182,505 7,9 15,17 22,24l1 7c-21,1 -40,6 -59,13 -40,15 -77,42 -94,93 -17,50 -15,124 -8,198 6,74 17,147 34,221 18,74 43,149 65,202 22,53 41,84 70,108 29,24 67,40 113,54 9,3 18,5 27,8l15 225c8,136 58,250 151,350l60 63zm3874 1341l991 0c109,0 197,88 197,196l0 0c0,109 -88,197 -197,197l-813 0c-48,-142 -105,-273 -178,-393zm3319 -7042c239,0 434,195 434,434l0 4883c0,239 -195,434 -434,434l-5225 0c79,-131 124,-278 134,-438l1 -10c87,-78 139,-172 179,-283 14,-42 28,-86 40,-130l4802 0 0 -4524c-2350,0 -4700,0 -7050,0l0 1634c-124,50 -240,117 -336,199 -69,60 -124,123 -168,190l0 -1955c0,-239 196,-434 434,-434 2397,0 4793,0 7189,0zm-4633 5972l2077 0 0 912 -873 0c-87,-107 -190,-204 -316,-292 -176,-121 -417,-198 -620,-261 -74,-23 -174,-49 -268,-78l0 -281zm1227 -2591l-1594 -693 0 -384 1594 -690 0 452 -1112 425 1112 442 0 448zm146 305l578 -2403 335 0 -581 2403 -332 0zm1059 -302l0 -448 1112 -439 -1112 -435 0 -444 1594 690 0 381 -1594 695z"></path></g></svg>