<svg xmlns:dc="http://purl.org/dc/elements/1.1/" xmlns:cc="http://creativecommons.org/ns#" xmlns:rdf="http://www.w3.org/1999/02/22-rdf-syntax-ns#" xmlns:svg="http://www.w3.org/2000/svg" xmlns="http://www.w3.org/2000/svg" xmlns:sodipodi="http://sodipodi.sourceforge.net/DTD/sodipodi-0.dtd" xmlns:inkscape="http://www.inkscape.org/namespaces/inkscape" viewBox="0 0 16.933333 16.933334" version="1.1" x="0px" y="0px"><g transform="translate(0,-280.06665)"><g style="" transform="matrix(0.26458334,0,0,0.26458334,-684.21278,-422.7629)" fill="#000000" fill-opacity="1" stroke="none"><path style="color:#000000;font-style:normal;font-variant:normal;font-weight:normal;font-stretch:normal;font-size:medium;line-height:normal;font-family:sans-serif;font-variant-ligatures:normal;font-variant-position:normal;font-variant-caps:normal;font-variant-numeric:normal;font-variant-alternates:normal;font-feature-settings:normal;text-indent:0;text-align:start;text-decoration:none;text-decoration-line:none;text-decoration-style:solid;text-decoration-color:#000000;letter-spacing:normal;word-spacing:normal;text-transform:none;writing-mode:lr-tb;direction:ltr;text-orientation:mixed;dominant-baseline:auto;baseline-shift:baseline;text-anchor:start;white-space:normal;shape-padding:0;clip-rule:nonzero;display:inline;overflow:visible;visibility:visible;opacity:1;isolation:auto;mix-blend-mode:normal;color-interpolation:sRGB;color-interpolation-filters:linearRGB;solid-color:#000000;solid-opacity:1;vector-effect:none;fill:#000000;fill-opacity:1;fill-rule:nonzero;stroke:none;stroke-width:1.99999976;stroke-linecap:round;stroke-linejoin:round;stroke-miterlimit:4;stroke-dasharray:none;stroke-dashoffset:0;stroke-opacity:1;color-rendering:auto;image-rendering:auto;shape-rendering:auto;text-rendering:auto;enable-background:accumulate" d="m 2612.001,2672.3646 c -2.1965,0 -4,-1.8036 -4,-4 0,-2.1964 2.1303,-4.0113 4.3267,-4.0094 l 10.6733,0.01 c 1.3518,-0.019 1.3518,2.0183 0,1.9992 h -11.0015 c -1.1161,2e-4 -1.9992,0.8831 -1.9992,1.9992 0,1.1161 0.8831,1.9992 1.9992,1.9992 5.4028,0 8.6172,1.3502 11.4237,2.2088 1.4755,0.4515 2.9396,0.779 4.8908,0.779 2.2312,0 3.7436,-0.8632 5.3496,-1.8508 1.606,-0.9876 3.0061,-2.1606 5.3378,-2.1515 0.5521,0 0.9996,-0.4475 0.9996,-0.9996 v -7.9967 c 0,-0.5504 -0.4491,-0.9994 -0.9996,-0.9996 l -2.0286,0.01 c -4.8965,0.024 -7.4746,-0.7141 -9.9552,-1.4585 -2.4807,-0.7443 -4.9095,-1.5403 -9.0318,-1.5403 -3.2187,0 -7.5154,1.0502 -10.7128,4.295 l -12.3977,12.5827 c -0.01,0.01 -0.014,0.014 -0.021,0.022 -0.4421,0.4741 -0.8324,1.2016 -0.8532,2.0735 -10e-5,0.01 -10e-5,0.016 0,0.023 0,1.6428 1.3572,3.0038 2.9999,3.0038 2,0 6.8154,-0.024 8,0 0.8217,0 1.4588,-0.4591 2,-1 1.9218,-2.0353 3.8314,-3.8312 5,-5 z"></path><path style="color:#000000;font-style:normal;font-variant:normal;font-weight:normal;font-stretch:normal;font-size:medium;line-height:normal;font-family:sans-serif;font-variant-ligatures:normal;font-variant-position:normal;font-variant-caps:normal;font-variant-numeric:normal;font-variant-alternates:normal;font-feature-settings:normal;text-indent:0;text-align:start;text-decoration:none;text-decoration-line:none;text-decoration-style:solid;text-decoration-color:#000000;letter-spacing:normal;word-spacing:normal;text-transform:none;writing-mode:lr-tb;direction:ltr;text-orientation:mixed;dominant-baseline:auto;baseline-shift:baseline;text-anchor:start;white-space:normal;shape-padding:0;clip-rule:nonzero;display:inline;overflow:visible;visibility:visible;opacity:1;isolation:auto;mix-blend-mode:normal;color-interpolation:sRGB;color-interpolation-filters:linearRGB;solid-color:#000000;solid-opacity:1;vector-effect:none;fill:#000000;fill-opacity:1;fill-rule:nonzero;stroke:none;stroke-width:1.99999988;stroke-linecap:round;stroke-linejoin:round;stroke-miterlimit:4;stroke-dasharray:none;stroke-dashoffset:0;stroke-opacity:1;paint-order:fill markers stroke;color-rendering:auto;image-rendering:auto;shape-rendering:auto;text-rendering:auto;enable-background:accumulate" d="m 2617,2678.3636 c -5.5119,0 -10,4.488 -10,10 0,5.512 4.4881,10 10,10 5.5117,0 10,-4.488 10,-10 0,-5.512 -4.4883,-10 -10,-10 z m 0.4844,2.998 c 0.5644,-0.01 1.0256,0.4511 1.0156,1.0157 v 0.9843 h 0.9844 c 1.3502,-0.017 1.3502,2.017 0,2 -0.998,0 -1.984,5e-4 -2.9805,0 -0.5549,0 -0.9883,0.4327 -0.9883,1 0,0.5672 0.4334,1 0.9883,1 h 0.9922 c 1.6419,0 2.9883,1.3581 2.9883,3 0,1.6412 -1.3434,2.999 -2.9844,3 v 0.9864 c 0.015,1.3479 -2.015,1.3479 -2,0 v -0.9864 h -0.9844 c -1.3502,0.017 -1.3502,-2.017 0,-2 h 2.9805 c 0.5548,0 0.9883,-0.4327 0.9883,-1 0,-0.5673 -0.4335,-1 -0.9883,-1 h -0.9922 c -1.6419,0 -2.9883,-1.3582 -2.9883,-3 0,-1.6405 1.3443,-3 2.9844,-3 v -0.9843 c -0.01,-0.5524 0.4322,-1.0057 0.9844,-1.0157 z"></path><path d="m 2622.001,2704.3626 c 2.1965,0 4,1.8036 4,4 0,2.1964 -2.1303,4.0113 -4.3267,4.0094 l -10.6733,-0.01 c -1.3518,0.019 -1.3518,-2.0183 0,-1.9992 h 11.0015 c 1.1161,-2e-4 1.9992,-0.8831 1.9992,-1.9992 0,-1.1161 -0.8831,-1.9992 -1.9992,-1.9992 -5.4028,0 -8.6172,-1.3502 -11.4237,-2.2088 -1.4755,-0.4515 -2.9396,-0.779 -4.8908,-0.779 -2.2312,0 -3.7436,0.8632 -5.3496,1.8508 -1.606,0.9876 -3.0061,2.1606 -5.3378,2.1515 -0.5521,0 -0.9996,0.4475 -0.9996,0.9996 v 7.9967 c 0,0.5504 0.4491,0.9994 0.9996,0.9996 l 2.0286,-0.01 c 4.8965,-0.024 7.4746,0.7141 9.9552,1.4585 2.4807,0.7443 4.9095,1.5403 9.0318,1.5403 3.2187,0 7.5154,-1.0502 10.7128,-4.295 l 12.3977,-12.5827 c 0.01,-0.01 0.014,-0.014 0.021,-0.022 0.4421,-0.4741 0.8324,-1.2016 0.8532,-2.0735 1e-4,-0.01 1e-4,-0.016 0,-0.023 0,-1.6428 -1.3572,-3.0038 -2.9999,-3.0038 -2,0 -6.8154,0.024 -8,0 -0.8217,0 -1.4588,0.4591 -2,1 -1.9218,2.0353 -3.8314,3.8312 -5,5 z" style="color:#000000;font-style:normal;font-variant:normal;font-weight:normal;font-stretch:normal;font-size:medium;line-height:normal;font-family:sans-serif;font-variant-ligatures:normal;font-variant-position:normal;font-variant-caps:normal;font-variant-numeric:normal;font-variant-alternates:normal;font-feature-settings:normal;text-indent:0;text-align:start;text-decoration:none;text-decoration-line:none;text-decoration-style:solid;text-decoration-color:#000000;letter-spacing:normal;word-spacing:normal;text-transform:none;writing-mode:lr-tb;direction:ltr;text-orientation:mixed;dominant-baseline:auto;baseline-shift:baseline;text-anchor:start;white-space:normal;shape-padding:0;clip-rule:nonzero;display:inline;overflow:visible;visibility:visible;opacity:1;isolation:auto;mix-blend-mode:normal;color-interpolation:sRGB;color-interpolation-filters:linearRGB;solid-color:#000000;solid-opacity:1;vector-effect:none;fill:#000000;fill-opacity:1;fill-rule:nonzero;stroke:none;stroke-width:1.99999976;stroke-linecap:round;stroke-linejoin:round;stroke-miterlimit:4;stroke-dasharray:none;stroke-dashoffset:0;stroke-opacity:1;color-rendering:auto;image-rendering:auto;shape-rendering:auto;text-rendering:auto;enable-background:accumulate"></path></g></g></svg>