<svg xmlns:dc="http://purl.org/dc/elements/1.1/" xmlns:cc="http://creativecommons.org/ns#" xmlns:rdf="http://www.w3.org/1999/02/22-rdf-syntax-ns#" xmlns:svg="http://www.w3.org/2000/svg" xmlns="http://www.w3.org/2000/svg" xmlns:sodipodi="http://sodipodi.sourceforge.net/DTD/sodipodi-0.dtd" xmlns:inkscape="http://www.inkscape.org/namespaces/inkscape" version="1.1" x="0px" y="0px" viewBox="0 0 100 100"><g transform="translate(0,-952.36218)"><path style="text-indent:0;text-transform:none;direction:ltr;block-progression:tb;baseline-shift:baseline;color:#000000;enable-background:accumulate;" d="M 71 20.5 C 64.396267 20.5 59 25.89627 59 32.5 C 59 39.10372 64.396267 44.5 71 44.5 C 77.603734 44.5 83 39.10372 83 32.5 C 83 25.89627 77.603734 20.5 71 20.5 z M 71 24.5 C 75.442 24.5 79 28.05803 79 32.5 C 79 36.94196 75.442 40.5 71 40.5 C 66.558 40.5 63 36.94196 63 32.5 C 63 28.05803 66.558 24.5 71 24.5 z M 45.9375 28.5 C 40.438354 28.5 35.9375 33.00085 35.9375 38.5 C 35.9375 43.99916 40.438354 48.5 45.9375 48.5 C 51.436647 48.5 55.9375 43.99916 55.9375 38.5 C 55.9375 33.00085 51.436647 28.5 45.9375 28.5 z M 45.9375 32.5 C 49.274887 32.5 51.9375 35.16261 51.9375 38.5 C 51.9375 41.8374 49.274887 44.5 45.9375 44.5 C 42.600114 44.5 39.9375 41.8374 39.9375 38.5 C 39.9375 35.16261 42.600114 32.5 45.9375 32.5 z M 23 37.5 C 18.6054 37.5 15 41.10541 15 45.5 C 15 49.89463 18.6054 53.5 23 53.5 C 27.3946 53.5 31 49.89463 31 45.5 C 31 41.10541 27.3946 37.5 23 37.5 z M 23 41.5 C 25.23284 41.5 27 43.26717 27 45.5 C 27 47.73283 25.23284 49.5 23 49.5 C 20.76716 49.5 19 47.73283 19 45.5 C 19 43.26717 20.76716 41.5 23 41.5 z M 71 47.5 C 64.538901 47.5 58.725719 48.961139 54.46875 51.59375 C 51.853355 50.892275 48.979254 50.5 45.9375 50.5 C 38.841526 50.5 32.584982 52.48797 28.6875 56 C 26.898876 55.682369 24.994378 55.5 23 55.5 C 18.598614 55.5 14.578207 56.25695 11.46875 57.84375 C 8.3592929 59.43045 6 62.10035 6 65.46875 L 6 75.5 A 2.0001998 2.0001998 0 0 0 7.4375 77.40625 C 11.785746 78.64415 15.976062 79.385 20.96875 79.5 A 2.0001998 2.0001998 0 0 0 21 79.5 L 25 79.5 A 2.0001998 2.0001998 0 0 0 25.03125 79.5 C 27.846331 79.435158 30.397955 79.158454 32.875 78.71875 C 36.436788 79.212196 40.079731 79.413061 43.90625 79.5 A 2.0001998 2.0001998 0 0 0 43.9375 79.5 L 47.9375 79.5 A 2.0001998 2.0001998 0 0 0 47.96875 79.5 C 51.275033 79.424883 54.461076 79.288751 57.5625 78.9375 C 61.278504 79.331226 65.075105 79.410398 68.96875 79.5 A 2.0002 2.0002 0 0 0 69 79.5 L 73 79.5 A 2.0002 2.0002 0 0 0 73.03125 79.5 C 79.793984 79.3443 86.318019 79.2145 92.5625 77.4375 A 2.0002 2.0002 0 0 0 94 75.5 L 94 61.5 C 94 57.1472 91.030038 53.5457 86.84375 51.1875 C 82.657462 48.8293 77.109579 47.5 71 47.5 z M 71 51.5 C 76.524421 51.5 81.469788 52.73805 84.875 54.65625 C 88.280212 56.57455 90 58.9586 90 61.5 L 90 73.8125 C 84.793965 75.0664 79.190721 75.3574 73 75.5 L 72.96875 75.5 L 69.03125 75.5 C 69.02027 75.4997 69.01097 75.5002 69 75.5 C 68.29342 75.483769 67.629758 75.45654 66.9375 75.4375 L 66.9375 63.5 C 66.9375 59.5045 64.194953 56.17175 60.375 53.96875 C 60.106664 53.813998 59.811458 53.676638 59.53125 53.53125 C 62.69326 52.276849 66.663803 51.5 71 51.5 z M 45.9375 54.5 C 50.893672 54.5 55.326453 55.6794 58.375 57.4375 C 61.423547 59.1956 62.9375 61.34 62.9375 63.5 L 62.9375 73.84375 C 58.284774 74.96365 53.425543 75.3746 47.9375 75.5 L 47.90625 75.5 L 43.96875 75.5 C 43.95765 75.4997 43.9486 75.5002 43.9375 75.5 C 42.585441 75.469245 41.284766 75.404838 40 75.34375 L 40 65.46875 C 40 62.10035 37.640707 59.43045 34.53125 57.84375 C 34.220519 57.68518 33.890896 57.54832 33.5625 57.40625 C 36.611982 55.682236 41.004167 54.5 45.9375 54.5 z M 23 59.5 C 26.908614 59.5 30.405707 60.22595 32.71875 61.40625 C 35.031793 62.58665 36 63.91135 36 65.46875 L 36 73.875 C 32.456196 74.7926 29.094329 75.4033 25 75.5 L 24.96875 75.5 L 21.03125 75.5 C 21.02002 75.4997 21.01122 75.5003 21 75.5 C 16.905671 75.403 13.543804 74.7926 10 73.875 L 10 65.46875 C 10 63.91135 10.968207 62.58665 13.28125 61.40625 C 15.594293 60.22595 19.091385 59.5 23 59.5 z " transform="translate(0,952.36218)" fill="#000000" fill-opacity="1" stroke="none" marker="none" visibility="visible" display="inline" overflow="visible"></path></g></svg>