<svg xmlns="http://www.w3.org/2000/svg" xmlns:xlink="http://www.w3.org/1999/xlink" version="1.1" x="0px" y="0px" viewBox="0 0 100 100" enable-background="new 0 0 100 100" xml:space="preserve"><path d="M72.1,71.1c0-0.8,0.6-1.4,1.4-1.4s1.4,0.6,1.4,1.4c0,0.8-0.6,1.4-1.4,1.4S72.1,71.9,72.1,71.1z M88.4,34.8v8.8h-2.1v-7.8  H59.6v33h19.1v3.3c0,0.6,0.2,1,0.6,1.4H58.7c-0.7,0-1.3-0.6-1.3-1.4V34.8c0-0.8,0.6-1.4,1.3-1.4h28.4C87.9,33.4,88.4,34,88.4,34.8z   M71.9,71.1c0,0.9,0.7,1.6,1.6,1.6s1.6-0.7,1.6-1.6c0-0.9-0.7-1.6-1.6-1.6S71.9,70.2,71.9,71.1z M73.2,34.8c0-0.2-0.1-0.3-0.3-0.3  s-0.3,0.1-0.3,0.3c0,0.2,0.1,0.3,0.3,0.3S73.2,34.9,73.2,34.8z M49.2,42.1l-3.5,6.1l-2.1-3.6l-4.5,7.7h4.2h4.8h7.1L49.2,42.1z   M74.2,49.3L72,53l-1.3-2.2L68,55.6h2.5h2.9h4.3L74.2,49.3z M88.2,55.4L86.7,58l-0.9-1.5l-1.9,3.3h1.8h2h3L88.2,55.4z M87,69.6  c-0.8,0-1.4,0.6-1.4,1.4c0,0.8,0.6,1.4,1.4,1.4s1.4-0.6,1.4-1.4C88.4,70.2,87.7,69.6,87,69.6z M95,45.2v27.1c0,0.7-0.7,1.3-1.5,1.3  H80.4c-0.8,0-1.5-0.6-1.5-1.3V45.2c0-0.7,0.7-1.3,1.5-1.3h13.1C94.3,43.9,95,44.5,95,45.2z M86.2,45.8c0,0.1,0.1,0.2,0.2,0.2h1.9  c0.1,0,0.2-0.1,0.2-0.2s-0.1-0.2-0.2-0.2h-1.9C86.2,45.6,86.2,45.7,86.2,45.8z M85,45.8c0,0.1,0.1,0.2,0.2,0.2  c0.1,0,0.2-0.1,0.2-0.2c0-0.1-0.1-0.2-0.2-0.2C85.1,45.6,85,45.7,85,45.8z M88.6,71c0-0.9-0.7-1.6-1.6-1.6s-1.6,0.7-1.6,1.6  c0,0.9,0.7,1.6,1.6,1.6S88.6,71.9,88.6,71z M94.2,47.6H79.8v21h14.4V47.6z M57.1,72.6v-0.2v-2.7H53V70c0,0.4-0.4,0.8-1,0.8H41.7  c-0.6,0-1-0.3-1-0.8v-0.3H4.4v1.7c0,1.2,1.3,2.2,2.8,2.2h49.8h0.6C57.6,73.6,57.1,73.2,57.1,72.6z M82.5,27.9v5.9h-3V28H14.1v38.4  h43v2.8h-46V28c0-1.5,1.3-2.7,2.8-2.7h65.8C81.3,25.3,82.5,26.5,82.5,27.9z M47.1,26.6c0-0.2-0.1-0.3-0.3-0.3  c-0.2,0-0.3,0.1-0.3,0.3c0,0.2,0.1,0.3,0.3,0.3C47,26.9,47.1,26.8,47.1,26.6z"></path></svg>