<svg xmlns="http://www.w3.org/2000/svg" xmlns:xlink="http://www.w3.org/1999/xlink" version="1.1" x="0px" y="0px" viewBox="0 0 64 64" style="enable-background:new 0 0 64 64;" xml:space="preserve"><path d="M55,2c-4.122,0-7,2.879-7,7c0,4.269,5.774,8.37,6.433,8.823C54.604,17.941,54.802,18,55,18s0.396-0.059,0.567-0.177  C56.226,17.37,62,13.269,62,9C62,4.879,59.122,2,55,2z M55,15.763c-1.788-1.36-5-4.312-5-6.763c0-3.037,1.962-5,5-5s5,1.963,5,5  C60,11.443,56.787,14.4,55,15.763z"></path><rect x="54" y="60" width="2" height="2"></rect><path d="M55,6c-1.654,0-3,1.346-3,3s1.346,3,3,3s3-1.346,3-3S56.654,6,55,6z M55,10c-0.551,0-1-0.448-1-1s0.449-1,1-1s1,0.448,1,1  S55.551,10,55,10z"></path><rect x="27" y="60" width="17" height="2"></rect><rect x="50" y="60" width="2" height="2"></rect><rect x="46" y="60" width="2" height="2"></rect><rect x="54" y="32" width="2" height="26"></rect><rect x="54" y="20" width="2" height="2"></rect><rect x="54" y="24" width="2" height="2"></rect><rect x="54" y="28" width="2" height="2"></rect><path d="M13.707,54.293c-0.237-0.237-0.577-0.339-0.908-0.272c-0.329,0.067-0.603,0.296-0.728,0.608l-1.966,4.924l-1,2l1.789,0.895  l1.034-2.076l1.437-3.592L17,60.414V62h2v-2c0-0.266-0.105-0.52-0.293-0.707L13.707,54.293z"></path><path d="M20.293,48.707c0.11,0.11,0.244,0.192,0.391,0.241l4.354,1.451c1.409,0.47,2.969-0.177,3.633-1.504l0.252-0.504  c0.374-0.748,0.418-1.626,0.121-2.408s-0.914-1.409-1.69-1.72l-2.791-1.116l-4.269-4.269c-0.534-0.534-1.235-0.832-1.985-0.866  C19.353,36.843,20,35.253,20,33.5c0-3.441-2.483-6.258-5.608-6.479v-3.21c2.025-0.266,3.502-0.84,4.542-1.757  c0.085,0.444,0.259,0.87,0.535,1.237l0.559,0.744c0.971,1.295,2.83,1.582,4.143,0.642L29.32,21h0.481l-1.751,9.633l-3.924,6.279  c-0.833,1.331-0.513,3.047,0.744,3.99l0.892,0.669c0.652,0.489,1.451,0.688,2.259,0.565c0.805-0.125,1.509-0.559,1.982-1.222  l3.81-5.334c0.046-0.064,0.085-0.136,0.115-0.21l1.437-3.592l3.713,3.714l1.549,7.742c0.157,0.785,0.61,1.463,1.277,1.907  c0.499,0.333,1.072,0.505,1.657,0.505c0.198,0,0.396-0.02,0.594-0.06l1.112-0.222c1.595-0.318,2.655-1.879,2.364-3.479l-1.648-9.066  c-0.032-0.175-0.109-0.338-0.225-0.472L40,25.63v-4.216l2.293,2.293c0.11,0.11,0.244,0.192,0.391,0.241l4.354,1.451  c1.409,0.471,2.968-0.178,3.633-1.504l0.252-0.504c0.374-0.748,0.418-1.626,0.121-2.408s-0.914-1.409-1.69-1.72l-2.791-1.116  l-4.269-4.269c-0.534-0.534-1.235-0.832-1.985-0.866C41.353,11.843,42,10.253,42,8.5C42,4.916,39.309,2,36,2s-6,2.916-6,6.5  c0,1.913,0.772,3.631,1.99,4.821l-4.155,0.692c-0.139,0.023-0.272,0.076-0.39,0.154l-6.761,4.507c0.24-1.608-0.01-3.362-0.312-4.871  C19.303,8.457,15.059,2,11.392,2c-4.548,0-7.844,6.119-8.98,11.804c-0.481,2.406-0.833,5.433,0.725,7.5  c1.033,1.371,2.72,2.175,5.255,2.508V31c0,0.047,0.02,0.087,0.027,0.132C8.152,31.867,8,32.664,8,33.5  c0,1.913,0.772,3.631,1.99,4.821l-4.155,0.692c-0.154,0.025-0.301,0.087-0.427,0.18l-5,3.667l1.183,1.613l4.808-3.526L12.083,40  h6.089c0.267,0,0.519,0.104,0.708,0.293l4.414,4.414c0.096,0.096,0.21,0.171,0.336,0.222l2.981,1.192  c0.263,0.104,0.463,0.309,0.563,0.573s0.086,0.55-0.041,0.803l-0.252,0.504c-0.221,0.443-0.742,0.657-1.21,0.502l-4.131-1.377  l-3.833-3.833c-0.286-0.286-0.716-0.373-1.09-0.217C16.244,43.23,16,43.596,16,44v7c0,0.238,0.085,0.47,0.241,0.65l5.873,6.852  l0.938,2.814l1.897-0.633l-1-3c-0.041-0.122-0.105-0.236-0.189-0.334L18,50.63v-4.216L20.293,48.707z M18,33.5  c0,2.481-1.794,4.5-4,4.5s-4-2.019-4-4.5c0-0.878,0.234-1.692,0.622-2.385c0.03-0.054,0.056-0.112,0.088-0.164  c0.119-0.193,0.254-0.372,0.398-0.542c0.047-0.056,0.096-0.111,0.146-0.164c0.152-0.163,0.312-0.317,0.486-0.451  c0.038-0.03,0.08-0.053,0.119-0.081c0.152-0.109,0.311-0.205,0.475-0.291c0.061-0.032,0.122-0.065,0.184-0.094  c0.192-0.087,0.391-0.156,0.596-0.209c0.07-0.018,0.141-0.03,0.212-0.043C13.546,29.034,13.769,29,14,29  C16.206,29,18,31.019,18,33.5z M10.392,28.309v-5.39c0-0.001,0-0.002,0-0.002V18h2v9.24c-0.01,0.003-0.019,0.009-0.029,0.012  c-0.332,0.102-0.65,0.236-0.956,0.395c-0.038,0.02-0.076,0.039-0.114,0.06c-0.29,0.16-0.566,0.345-0.827,0.552  C10.442,28.278,10.415,28.29,10.392,28.309z M36,4c2.206,0,4,2.019,4,4.5S38.206,13,36,13s-4-2.019-4-4.5S33.794,4,36,4z   M21.314,20.659l7.062-4.708L34.083,15h6.089c0.267,0,0.519,0.104,0.708,0.293l4.414,4.414c0.096,0.096,0.21,0.171,0.336,0.222  l2.981,1.192c0.263,0.104,0.463,0.309,0.563,0.573s0.086,0.55-0.041,0.803l-0.252,0.504c-0.221,0.443-0.743,0.656-1.21,0.502  l-4.131-1.377l-3.833-3.833c-0.287-0.286-0.716-0.374-1.09-0.217C38.244,18.23,38,18.596,38,19v7c0,0.238,0.085,0.47,0.241,0.65  l5.824,6.795l1.6,8.8c0.097,0.533-0.256,1.054-0.787,1.16l-1.113,0.222c-0.262,0.05-0.529,0-0.75-0.148  c-0.222-0.148-0.374-0.374-0.426-0.636l-1.608-8.039c-0.039-0.193-0.134-0.371-0.273-0.511l-5-5C35.518,29.104,35.263,29,35,29  c-0.067,0-0.134,0.007-0.201,0.021c-0.329,0.067-0.603,0.296-0.728,0.608l-1.955,4.888l-3.74,5.236  c-0.158,0.221-0.392,0.365-0.661,0.407c-0.266,0.04-0.535-0.025-0.753-0.188l-0.892-0.669c-0.419-0.314-0.526-0.887-0.249-1.33  l4.026-6.442c0.067-0.107,0.113-0.227,0.136-0.352l2-11c0.053-0.292-0.026-0.592-0.216-0.819S31.296,19,31,19h-2  c-0.208,0-0.412,0.065-0.581,0.187l-5.411,3.864c-0.438,0.312-1.057,0.217-1.381-0.215l-0.559-0.744  c-0.167-0.223-0.233-0.496-0.186-0.77S21.083,20.813,21.314,20.659z M4.733,20.1c-0.842-1.117-0.954-2.938-0.361-5.903  C5.375,9.185,8.275,4,11.392,4c2.128,0,5.988,5.041,7.02,10.196c0.593,2.965,0.481,4.786-0.361,5.903  c-0.653,0.865-1.854,1.424-3.658,1.696v-4.56l1.895-3.789l-1.789-0.895L12.774,16H10.01l-1.724-3.447l-1.789,0.895l1.894,3.788v4.56  C6.588,21.523,5.386,20.965,4.733,20.1z"></path><path d="M9.768,44.359C9.578,44.132,9.296,44,9,44H7c-0.227,0-0.447,0.077-0.625,0.219l-5,4l1.249,1.562L7.351,46h0.451  l-1.749,9.617l-3.885,5.828l1.664,1.109l4-6c0.076-0.113,0.127-0.241,0.152-0.376l2-11C10.037,44.887,9.958,44.587,9.768,44.359z"></path><path d="M31.832,57.456l-2.822-4.233c0.467,0.13,0.967,0.332,1.465,0.639c1.74,1.074,2.373,2.752,2.563,3.424L34,57.011l0.962,0.274  c0.191-0.672,0.824-2.35,2.563-3.423c0.498-0.308,0.998-0.509,1.465-0.64l-2.822,4.233l1.664,1.109l4-6  c0.199-0.299,0.223-0.681,0.062-1.001c-0.16-0.321-0.479-0.531-0.837-0.552c-0.93-0.057-2.762,0.024-4.583,1.147  c-1.152,0.711-1.94,1.616-2.475,2.459c-0.535-0.843-1.322-1.748-2.475-2.46c-1.819-1.121-3.65-1.201-4.582-1.146  c-0.358,0.021-0.678,0.23-0.837,0.552c-0.16,0.32-0.136,0.702,0.062,1.001l4,6L31.832,57.456z"></path><path d="M47.6,47.2c-0.398-0.301-0.956-0.261-1.307,0.093l-3,3c-0.304,0.305-0.38,0.77-0.188,1.154l1,2  c0.138,0.276,0.396,0.473,0.698,0.533l5,1C49.87,54.994,49.936,55,50,55c0.423,0,0.81-0.27,0.948-0.684l1-3  c0.136-0.408-0.004-0.858-0.349-1.116L47.6,47.2z M49.331,52.847l-3.655-0.731l-0.459-0.918l1.877-1.877l2.729,2.047L49.331,52.847z  "></path></svg>