<svg xmlns="http://www.w3.org/2000/svg" xmlns:xlink="http://www.w3.org/1999/xlink" version="1.1" x="0px" y="0px" viewBox="0 0 64 64" style="enable-background:new 0 0 64 64;" xml:space="preserve"><style type="text/css">
	.st0{display:none;}
	.st1{display:inline;}
	.st2{fill:none;stroke:#B3B3B3;stroke-width:0.1;stroke-miterlimit:10;}
</style><g class="st0"><g class="st1"><rect x="2" y="2" class="st2" width="60" height="60"></rect><line class="st2" x1="32" y1="2" x2="32" y2="62"></line><line class="st2" x1="62" y1="32" x2="2" y2="32"></line><line class="st2" x1="2" y1="2" x2="62" y2="62"></line><rect x="10" y="10" class="st2" width="44" height="44"></rect><line class="st2" x1="62" y1="2" x2="2" y2="62"></line><line class="st2" x1="2" y1="32" x2="32" y2="2"></line><line class="st2" x1="32" y1="2" x2="62" y2="32"></line><line class="st2" x1="62" y1="32" x2="32" y2="62"></line><line class="st2" x1="32" y1="62" x2="2" y2="32"></line><circle class="st2" cx="32" cy="32" r="21"></circle></g></g><polygon points="46,3 46,12 54,12 "></polygon><path d="M9,13v16h21V13H9z M18,24c0,1.7-1.3,3-3,3h-1c-1.7,0-3-1.3-3-3v-1h2v1c0,0.6,0.4,1,1,1h1c0.6,0,1-0.4,1-1v-9h2V24z M28,19  h-2v-1c0-0.6-0.4-1-1-1h-2c-0.6,0-1,0.4-1,1v1c0,0.6,0.4,1,1,1h2c1.7,0,3,1.3,3,3v1c0,1.7-1.3,3-3,3h-2c-1.7,0-3-1.3-3-3v-1h2v1  c0,0.6,0.4,1,1,1h2c0.6,0,1-0.4,1-1v-1c0-0.6-0.4-1-1-1h-2c-1.7,0-3-1.3-3-3v-1c0-1.7,1.3-3,3-3h2c1.7,0,3,1.3,3,3V19z"></path><path d="M44,14V2H13v9h19v20H13v31h42V14H44z M39,40h-1.6c-1.1,0-2.4,0.9-2.4,2v2.3c0,1.3-0.3,2.6-1.3,3.5v0.1V48  c0.9,0.9,1.3,2.2,1.3,3.5V54c0,1.1,1.3,2,2.4,2H39v2h-1.6c-2.2,0-4.4-1.8-4.4-4v-2.3c0-0.8-0.1-1.6-0.7-2.1L30.9,48l1.4-1.5  c0.6-0.6,0.7-1.3,0.7-2.1V42c0-2.2,2.2-4,4.4-4H39V40z M49.7,49.5c-0.6,0.6-0.7,1.3-0.7,2.1V54c0,2.2-2.2,4-4.4,4H43v-2h1.6  c1.1,0,2.4-0.9,2.4-2v-2.3c0-1.3,0.3-2.6,1.3-3.5v-0.1V48c-0.9-0.9-1.3-2.2-1.3-3.5V42c0-1.1-1.3-2-2.4-2H43v-2h1.6  c2.2,0,4.4,1.8,4.4,4v2.3c0,0.8,0.1,1.6,0.7,2.1l1.5,1.5L49.7,49.5z"></path></svg>