<svg xmlns="http://www.w3.org/2000/svg" data-name="Layer 1" viewBox="0 0 128 128" x="0px" y="0px"><title>97 Miscellaneous 22 final</title><path d="M64,69A19.07,19.07,0,0,0,82.1,55.08a2,2,0,0,0-3.83-1.16,14.74,14.74,0,0,1-28.55,0,2,2,0,0,0-3.83,1.16A19.07,19.07,0,0,0,64,69Z"></path><path d="M76.5,45a8,8,0,1,0-8-8A8,8,0,0,0,76.5,45Zm0-12a4,4,0,1,1-4,4A4,4,0,0,1,76.5,33Z"></path><circle cx="76.5" cy="37" r="2"></circle><path d="M47.5,37a4,4,0,0,1,8,0,2,2,0,0,0,4,0,8,8,0,0,0-16,0,2,2,0,0,0,4,0Z"></path><path d="M119,127.88a1.85,1.85,0,0,0,1.55-.76l.11-.13a2,2,0,0,0,.11-.19s.06-.09.08-.15,0-.06,0-.09a2,2,0,0,0,.13-.69V102a16.84,16.84,0,0,0-5.51-11.16c-.22-.21-.46-.42-.69-.62l-.49-.44C106.16,82.87,93,80.48,89.18,79.9a10.37,10.37,0,0,1-8.39-6l-.06-.1A14.7,14.7,0,0,1,80,71.65C87.41,65.12,93.43,55,96.57,43.76A38.37,38.37,0,0,0,98,33.46C98,15,82.75,0,64,0A34.14,34.14,0,0,0,40.4,9.37,33,33,0,0,0,30,33.46a56.17,56.17,0,0,0,13.4,35.3,28.62,28.62,0,0,0,4.32,3.95c-.12.35-.28.72-.45,1.1l-.07.12A9.92,9.92,0,0,1,40,79.75C39,79.86,21.65,82,12.51,90.8A16.84,16.84,0,0,0,7,102v24a2,2,0,0,0,2,2l18,0V112.09a2,2,0,0,1,4,0V128l66-.08V112.09a2,2,0,0,1,4,0V127.9ZM46.39,66.1A51.91,51.91,0,0,1,34,33.46a29,29,0,0,1,9.16-21.19A30.14,30.14,0,0,1,64,4C80.54,4,94,17.22,94,33.46a34.53,34.53,0,0,1-1.28,9.23c-3.08,11.08-9.07,20.85-16.43,26.82C67.53,76.61,54.4,75.12,46.39,66.1Zm.55,14.69C51,84.66,57.33,87,64,87s13-2.29,17.06-6.22a12.87,12.87,0,0,0,3.54,2.11C79.8,88,72.23,91,64,91s-15.8-3-20.6-8.1A12.8,12.8,0,0,0,46.94,80.79ZM64,99c-13,0-24.21-6-27.59-14.59,2.17-.44,3.68-.65,4-.69C43.58,90.33,53.17,95,64,95s20.39-4.67,23.56-11.28h0c.07,0,1.65.21,4,.69C88.19,93,77,99,64,99Z"></path></svg>