<svg xmlns="http://www.w3.org/2000/svg" xmlns:xlink="http://www.w3.org/1999/xlink" version="1.1" x="0px" y="0px" viewBox="0 0 32 32" enable-background="new 0 0 32 32" xml:space="preserve"><g><rect fill="none" width="32" height="32"></rect></g><g><g><path d="M7,31H1v-9c0-1.103,0.897-2,2-2h2c1.103,0,2,0.897,2,2V31z M3,29h2v-7H3V29z"></path></g><g><path d="M15,31H9V20c0-1.103,0.897-2,2-2h2c1.103,0,2,0.897,2,2V31z M11,29h2v-9h-2V29z"></path></g><g><path d="M23,31h-6V17c0-1.103,0.897-2,2-2h2c1.103,0,2,0.897,2,2V31z M19,29h2V17h-2V29z"></path></g><g><path d="M31,31h-6V15c0-1.103,0.897-2,2-2h2c1.103,0,2,0.897,2,2V31z M27,29h2V15h-2V29z"></path></g><g><path d="M12,16c-0.256,0-0.512-0.098-0.707-0.293c-0.391-0.391-0.391-1.023,0-1.414l13-13c0.391-0.391,1.023-0.391,1.414,0    s0.391,1.023,0,1.414l-13,13C12.512,15.902,12.256,16,12,16z"></path></g><g><path d="M25,3h-5c-0.553,0-1-0.448-1-1s0.447-1,1-1h5c0.553,0,1,0.448,1,1S25.553,3,25,3z"></path></g><g><path d="M25,8c-0.553,0-1-0.448-1-1V2c0-0.552,0.447-1,1-1s1,0.448,1,1v5C26,7.552,25.553,8,25,8z"></path></g><g><path d="M28,31H2c-0.552,0-1-0.448-1-1s0.448-1,1-1h26c0.553,0,1,0.448,1,1S28.553,31,28,31z"></path></g></g></svg>