<svg xmlns="http://www.w3.org/2000/svg" data-name="Layer 1" viewBox="0 0 128 128" x="0px" y="0px"><title>miscellaneous 37 solid</title><path d="M65.41,56.59a2,2,0,0,0-2.83,0l-6,6a2,2,0,0,0,0,2.83l6,6a2,2,0,0,0,2.83,0l6-6a2,2,0,0,0,0-2.83Z"></path><circle cx="34.63" cy="34.42" r="1.68"></circle><path d="M93.62,36.1A1.68,1.68,0,1,0,92,34.42,1.68,1.68,0,0,0,93.62,36.1Z"></path><path d="M112,41a2,2,0,0,0,1.41-.59L118.83,35H126a2,2,0,0,0,0-4h-8a2,2,0,0,0-1.41.59L111.17,37H105V27a4,4,0,0,0-4-4H90V16.83l5.41-5.42A2,2,0,0,0,96,10V2a2,2,0,0,0-4,0V9.17l-5.41,5.42A2,2,0,0,0,86,16v7H82V15.83l5.41-5.42A2,2,0,0,0,88,9V2a2,2,0,0,0-4,0V8.17l-5.41,5.42A2,2,0,0,0,78,15v8H74V13.83l5.41-5.42A2,2,0,0,0,80,7V2a2,2,0,0,0-4,0V6.17l-5.41,5.42A2,2,0,0,0,70,13V23H66V5a2,2,0,0,0-4,0V23H58V13a2,2,0,0,0-.59-1.41L52,6.17V2a2,2,0,0,0-4,0V7a2,2,0,0,0,.59,1.41L54,13.83V23H50V15a2,2,0,0,0-.59-1.41L44,8.17V2a2,2,0,0,0-4,0V9a2,2,0,0,0,.59,1.41L46,15.83V23H42V16a2,2,0,0,0-.59-1.41L36,9.17V2a2,2,0,0,0-4,0v8a2,2,0,0,0,.59,1.41L38,16.83V23H27a4,4,0,0,0-4,4V37H16.83l-5.42-5.41A2,2,0,0,0,10,31H2a2,2,0,0,0,0,4H9.17l5.42,5.41A2,2,0,0,0,16,41h7v4H15.83l-5.42-5.41A2,2,0,0,0,9,39H2a2,2,0,0,0,0,4H8.17l5.42,5.41A2,2,0,0,0,15,49h8v4H13.83L8.41,47.59A2,2,0,0,0,7,47H2a2,2,0,0,0,0,4H6.17l5.42,5.41A2,2,0,0,0,13,57H23v4H5a2,2,0,0,0,0,4H23v4H13a2,2,0,0,0-1.41.59L6.17,75H2a2,2,0,0,0,0,4H7a2,2,0,0,0,1.41-.59L13.83,73H23v4H15a2,2,0,0,0-1.41.59L8.17,83H2a2,2,0,0,0,0,4H9a2,2,0,0,0,1.41-.59L15.83,81H23v4H16a2,2,0,0,0-1.41.59L9.17,91H2a2,2,0,0,0,0,4h8a2,2,0,0,0,1.41-.59L16.83,89H23v12a4,4,0,0,0,4,4H38v6.17l-5.41,5.42A2,2,0,0,0,32,118v8a2,2,0,0,0,4,0v-7.17l5.41-5.42A2,2,0,0,0,42,112v-7h4v7.17l-5.41,5.42A2,2,0,0,0,40,119v7a2,2,0,0,0,4,0v-6.17l5.41-5.42A2,2,0,0,0,50,113v-8h4v9.17l-5.41,5.42A2,2,0,0,0,48,121v5a2,2,0,0,0,4,0v-4.17l5.41-5.42A2,2,0,0,0,58,115V105h4v18a2,2,0,0,0,4,0V105h4v10a2,2,0,0,0,.59,1.41L76,121.83V126a2,2,0,0,0,4,0v-5a2,2,0,0,0-.59-1.41L74,114.17V105h4v8a2,2,0,0,0,.59,1.41L84,119.83V126a2,2,0,0,0,4,0v-7a2,2,0,0,0-.59-1.41L82,112.17V105h4v7a2,2,0,0,0,.59,1.41L92,118.83V126a2,2,0,0,0,4,0v-8a2,2,0,0,0-.59-1.41L90,111.17V105h11a4,4,0,0,0,4-4V89h6.17l5.42,5.41A2,2,0,0,0,118,95h8a2,2,0,0,0,0-4h-7.17l-5.42-5.41A2,2,0,0,0,112,85h-7V81h7.17l5.42,5.41A2,2,0,0,0,119,87h7a2,2,0,0,0,0-4h-6.17l-5.42-5.41A2,2,0,0,0,113,77h-8V73h9.17l5.42,5.41A2,2,0,0,0,121,79h5a2,2,0,0,0,0-4h-4.17l-5.42-5.41A2,2,0,0,0,115,69H105V65h18a2,2,0,0,0,0-4H105V57h10a2,2,0,0,0,1.41-.59L121.83,51H126a2,2,0,0,0,0-4h-5a2,2,0,0,0-1.41.59L114.17,53H105V49h8a2,2,0,0,0,1.41-.59L119.83,43H126a2,2,0,0,0,0-4h-7a2,2,0,0,0-1.41.59L112.17,45H105V41ZM27,46.81h5.34l.94.26,6.06,3.6V56L34.4,53.09a2,2,0,0,0-1-.28H27Zm0,10h5.34l.94.26,6.06,3.6V66L34.4,63.09a2,2,0,0,0-1-.28H27Zm0,10h5.34l.94.26,6.06,3.6V76L34.4,73.09a2,2,0,0,0-1-.28H27ZM34.62,99.1a5.68,5.68,0,1,1,5.68-5.68A5.68,5.68,0,0,1,34.62,99.1Zm0-59a5.68,5.68,0,1,1,5.68-5.68A5.69,5.69,0,0,1,34.63,40.1ZM71,27h6V39.33H71ZM61,27h6V39.33H61ZM51,27h6V39.33H51ZM43.33,43.33h9.42V47.7a5.69,5.69,0,0,0-3.3,3.3H43.33Zm0,41.33V77h6.12a5.69,5.69,0,0,0,3.3,3.3v4.37ZM57,101H51V88.67h6Zm10,0H61V88.67h6Zm10,0H71V88.67h6Zm7.67-16.33h-10V80.3A5.69,5.69,0,0,0,78,77h6.7Zm0-11.67H78a5.66,5.66,0,1,0-7.3,7.3v4.37H56.75V80.3a5.66,5.66,0,1,0-7.3-7.3H43.33V55h6.12a5.66,5.66,0,1,0,7.3-7.3V43.33H70.67V47.7A5.66,5.66,0,1,0,78,55h6.7Zm0-22H78a5.69,5.69,0,0,0-3.29-3.3V43.33h10Zm9-22.26A5.68,5.68,0,1,1,88,34.42,5.68,5.68,0,0,1,93.62,28.74Zm0,70.36a5.68,5.68,0,1,1,5.68-5.68A5.69,5.69,0,0,1,93.63,99.1ZM101,72.81H94.63a2,2,0,0,0-1,.28L88.67,76V70.67l6.06-3.6.94-.26H101Zm0-10H94.63a2,2,0,0,0-1,.28L88.67,66V60.67l6.06-3.6.94-.26H101Zm0-10H94.63a2,2,0,0,0-1,.28L88.67,56V50.67l6.06-3.6.94-.26H101Z"></path><path d="M34.62,91.74a1.68,1.68,0,1,0,1.68,1.68A1.68,1.68,0,0,0,34.62,91.74Z"></path><circle cx="93.63" cy="93.42" r="1.68"></circle></svg>