<svg xmlns="http://www.w3.org/2000/svg" data-name="Layer 1" viewBox="0 0 100 100" x="0px" y="0px"><title>Artboard 30</title><path d="M90,42.6H90V39.48a9.74,9.74,0,0,0-9.06-9.8c-.3,0-.6,0-.91,0a9.66,9.66,0,0,0-8.87,7.19,2.08,2.08,0,0,0,2.08,2.59,2,2,0,0,0,2-1.47,5.44,5.44,0,0,1,4.69-4.1l.52,0a5.4,5.4,0,0,1,5.4,5.4V42.6H70.54A2.53,2.53,0,0,0,68,45.13V56.85a2.53,2.53,0,0,0,2.53,2.53H90a2.53,2.53,0,0,0,2.53-2.53V45.13A2.53,2.53,0,0,0,90,42.6ZM82.16,53.93a.48.48,0,0,1-.47.58H78.84a.48.48,0,0,1-.47-.58l.55-2.68A2.11,2.11,0,0,1,80,47.56h.25a2.11,2.11,0,0,1,1.34,3.74Zm3.92,13.25L66.48,65.6l-7-13.41a18.65,18.65,0,0,0-3-4.22h0a19.11,19.11,0,0,0-2.19-2,64.67,64.67,0,0,0-8.59-5.51l-4.59,22L38.78,47.91l1.55-2.49-2.28-2.9,6-3.85V36.21a9,9,0,0,0,1.15-3.1c.44,0,1-.65,1.64-2.85.85-3-.05-3.46-.82-3.38a7.89,7.89,0,0,0,.33-1.24c1.3-7.79-2.54-8.07-2.54-8.07a5.9,5.9,0,0,0-2.31-2.15,7.79,7.79,0,0,0-4.75-1,6.9,6.9,0,0,0-1.89.36h0a8.34,8.34,0,0,0-2.08,1.07,11.14,11.14,0,0,0-2.14,1.77,8.63,8.63,0,0,0-2.31,4.06,8.82,8.82,0,0,0,0,4h0a7.92,7.92,0,0,0,.33,1.24c-.77-.07-1.67.37-.82,3.38.62,2.2,1.2,2.82,1.64,2.85a9.22,9.22,0,0,0,1.15,3.14v2.41l6,3.85-2.28,2.9L36,47.91,33.68,62.53l-4.58-22a64.79,64.79,0,0,0-8.42,5.38,18.92,18.92,0,0,0-5.63,7l-3.42,7.29-3.75,8a4.6,4.6,0,0,0,.29,4.43l8.67,13.08H52l1-22.6L59.8,72a5.41,5.41,0,0,0,4.63,2.14l21.62-1.63a2.65,2.65,0,0,0,0-5.29Zm-68.81,4.1a1.55,1.55,0,0,1,0-1.62L22.41,62l1.07,19.63Z"></path></svg>