<svg xmlns:x="http://ns.adobe.com/Extensibility/1.0/" xmlns:i="http://ns.adobe.com/AdobeIllustrator/10.0/" xmlns:graph="http://ns.adobe.com/Graphs/1.0/" xmlns="http://www.w3.org/2000/svg" xmlns:xlink="http://www.w3.org/1999/xlink" version="1.1" baseProfile="basic" x="0px" y="0px" viewBox="0 0 100 100" xml:space="preserve"><metadata><x:xmpmeta xmlns:x="adobe:ns:meta/" x:xmptk="Adobe XMP Core 5.6-c143 79.161210, 2017/08/11-10:28:36        "></x:xmpmeta><sfw xmlns="http://ns.adobe.com/SaveForWeb/1.0/"><slices></slices><sliceSourceBounds bottomLeftOrigin="true" height="96.1" width="92.5" x="4.2" y="2.3"></sliceSourceBounds></sfw></metadata><path d="M50.3,6.2h0.5v4.6v3.8H53V11V6.4h0.5C58.9,6.1,62,4.8,62,4.1c0-0.9-3.4-2.4-10-2.4S42,3.2,42,3.9S45,6,50.3,6.2z"></path><path d="M11.4,30.3l0.3-0.4l4.5,3.4l2.2,1.6l1.2-1.6L17,31.4l-4.2-3.2l0.3-0.4c3.1-4.5,3.8-7.7,3.2-8.1c0,0-0.1-0.1-0.2-0.1  c-0.4,0-1.2,0.2-2.5,1.3c-1.5,1.2-3.4,3.2-5.1,5.4s-3,4.5-3.7,6.4c-0.8,2.1-0.5,2.9-0.3,3.1C5.1,36.1,7.9,34.6,11.4,30.3z"></path><path d="M91.5,23.5c-1.9-2-3.8-3.7-5.6-4.8c-1.9-1.2-2.7-1.1-3-1c-0.5,0.5,0.4,3.6,4,7.8l0.3,0.4l-6,5.6l1.4,1.5l6-5.6l0.3,0.3  c3.8,3.8,6.8,5.2,7.5,4.6C97.2,31.8,96,28.3,91.5,23.5z"></path><path d="M51.2,93.1h-0.5v-3.5v-4.8h-2.1v4.7v0.5v3.1H48c-5.4,0.2-8.5,1.5-8.5,2.3s3.4,2.3,10,2.3s10-1.5,10-2.3S56.6,93.4,51.2,93.1  z"></path><path d="M89.3,71.4L89,71.8l-3.2-2.4l-3.5-2.6l-1.2,1.6l3.7,2.7l0.4,0.3l2.5,1.9l-0.3,0.4c-3.1,4.5-3.8,7.7-3.2,8.1  c0.7,0.4,4-1.3,7.8-6.6c1.6-2.2,3-4.5,3.7-6.4c0.9-2,0.7-2.7,0.4-3C95.6,65.6,92.7,67.1,89.3,71.4z"></path><path d="M14.2,73.6l3.4-3.2l2.7-2.5l-1.4-1.5l-2.4,2.2L16.1,69L12.7,72l-0.3-0.3C9,68.4,6.4,67,5.3,67c-0.2,0-0.3,0-0.4,0.1  c-0.5,0.5,0.5,4.1,5.1,8.9c4.4,4.8,7.9,6.3,8.5,5.7c0.5-0.5-0.4-3.6-4-7.8L14.2,73.6z"></path><path d="M39.2,62.6h11.3V51.9h-13C37.6,55.7,38.2,59.4,39.2,62.6z"></path><path d="M50.5,76.1V65.2H40.1C42.5,71.3,46.2,75.5,50.5,76.1z"></path><path d="M53.1,25.1v24.2h12.4C65.2,36.9,59.8,26.5,53.1,25.1z"></path><path d="M37.5,49.3h13V25C43.5,26,37.8,36.6,37.5,49.3z"></path><path d="M30.5,65.2c3,4.2,7.2,7.5,12.1,9.3c-2.2-2.3-4.1-5.5-5.4-9.3H30.5z"></path><path d="M34.7,51.9h-8.8c0.2,3.8,1.3,7.5,3,10.7h7.4C35.4,59.3,34.8,55.7,34.7,51.9z"></path><path d="M42.6,26.5C33.2,30,26.4,38.8,25.9,49.3h8.8C35,39.7,38.1,31.3,42.6,26.5z"></path><path d="M66.7,62.6h7.4c1.7-3.2,2.8-6.8,3-10.7h-8.8C68.1,55.7,67.6,59.3,66.7,62.6z"></path><path d="M60.4,26.5c4.5,4.8,7.6,13.2,7.9,22.8h8.8C76.6,38.8,69.8,30,60.4,26.5z"></path><path d="M85.8,67.2c2.5-5.4,4-11.2,4-16.9c0-6.2-1.5-12.2-4.3-17.6l-3,2.6l-3.6-3.8l3.6-3.4C76,19,65.7,13.1,54.6,12.2v4.3h-5.4  v-4.3C36.7,13,25,20,18.6,30.7l3.1,2.3l-3.2,4.3l-2.3-1.8c-2,4.6-3,9.7-3,14.8c0,5.6,1.2,11,3.5,16l2.4-2.2l3.6,3.8l-3.4,3.2  c6.3,9.4,16.5,15.9,27.7,17.2v-5.2h5.4v5.5c12.3-0.3,23.7-6.5,30.8-16.7L79,68.9l3.1-4.4L85.8,67.2z M51.5,78.9  c-15.7,0-28.3-12.7-28.3-28.3c0-15.7,12.7-28.3,28.3-28.3c15.7,0,28.3,12.7,28.3,28.3C79.8,66.2,67.2,78.9,51.5,78.9z"></path><path d="M65.5,51.9H53.1v10.7h10.7C64.8,59.4,65.4,55.7,65.5,51.9z"></path><path d="M53.1,65.2V76c4-0.9,7.5-4.9,9.8-10.7H53.1z"></path><path d="M60.4,74.5c4.9-1.8,9.1-5.1,12.1-9.3h-6.6C64.5,69,62.6,72.2,60.4,74.5z"></path></svg>