<svg xmlns="http://www.w3.org/2000/svg" xmlns:xlink="http://www.w3.org/1999/xlink" version="1.1" x="0px" y="0px" viewBox="0 0 100 100" enable-background="new 0 0 100 100" xml:space="preserve"><g><circle fill="#000000" cx="49.684" cy="24.837" r="6.274"></circle><path fill="#000000" d="M55.501,56.515h2.046l-1.092-15.89l10.231-11.846c1.027-1.201,0.885-3.006-0.315-4.032   c-0.54-0.46-1.198-0.685-1.857-0.685c-0.807,0-1.607,0.34-2.175,1.001l-8.124,8.849c0-3.063-1.104-0.889-4.382-0.889h-0.297   c-3.277,0-4.382-2.174-4.382,0.889l-8.125-8.681c-0.567-0.662-1.369-1.001-2.175-1.001c-0.658,0-1.317,0.225-1.857,0.686   c-1.2,1.025-1.342,2.83-0.314,4.031l10.235,11.85L41.82,56.515h2.047v0.203L41.78,79.077c-0.148,1.573,1.008,2.967,2.581,3.114   c0.09,0.007,0.18,0.012,0.27,0.012c1.458,0,2.704-1.112,2.844-2.594l2.021-21.646h0.379l2.021,21.646   c0.14,1.481,1.386,2.594,2.844,2.594c0.089,0,0.179-0.005,0.27-0.012c1.571-0.147,2.727-1.541,2.581-3.114l-2.088-22.36V56.515z"></path><path fill="#000000" d="M27.843,34.868l-1.772-1.425c0-3.062-1.106-0.888-4.384-0.888h-0.297c-3.277,0-4.382-2.174-4.382,0.888   l-1.772,1.436L5.389,46.563c-1.027,1.202-0.885,3.007,0.315,4.031c0.54,0.46,1.199,0.687,1.857,0.687   c0.807,0,1.608-0.34,2.175-1.002l4.789-5.769l-0.85,11.536h2.047v0.203l-2.088,22.359c-0.146,1.573,1.01,2.967,2.582,3.113   c0.091,0.008,0.181,0.012,0.269,0.012c1.458,0,2.706-1.111,2.844-2.593l2.022-21.646h0.378l2.021,21.646   c0.14,1.481,1.385,2.593,2.844,2.593c0.09,0,0.18-0.004,0.271-0.012c1.572-0.146,2.727-1.54,2.582-3.113l-2.09-22.36v-0.202h2.047   L28.552,44.5l4.943,5.783c0.567,0.662,1.369,1.001,2.175,1.001c0.659,0,1.317-0.225,1.857-0.686c1.2-1.026,1.342-2.832,0.315-4.032   L27.843,34.868z"></path><path fill="#000000" d="M20.974,30.611c0.211,0.021,0.425,0.032,0.642,0.032c3.465,0,6.276-2.809,6.276-6.275   s-2.811-6.275-6.276-6.275c-0.216,0-0.431,0.011-0.642,0.032c-3.164,0.321-5.634,2.994-5.634,6.243S17.81,30.289,20.974,30.611z"></path><path fill="#000000" d="M94.016,46.567l-10-11.699l-1.772-1.425c0-3.062-1.104-0.888-4.382-0.888h-0.297   c-3.277,0-4.382-2.174-4.382,0.888l-1.773,1.436l-9.847,11.685c-1.027,1.202-0.886,3.007,0.315,4.031   c0.539,0.46,1.199,0.687,1.856,0.687c0.807,0,1.608-0.34,2.175-1.002l4.79-5.769l-0.851,11.536h2.048v0.203l-2.088,22.359   c-0.148,1.573,1.008,2.967,2.581,3.113c0.09,0.008,0.18,0.012,0.27,0.012c1.458,0,2.704-1.111,2.843-2.593l2.021-21.646h0.379   l2.021,21.646c0.14,1.481,1.386,2.593,2.844,2.593c0.09,0,0.179-0.004,0.27-0.012c1.572-0.146,2.728-1.54,2.581-3.113l-2.088-22.36   v-0.202h2.046L84.726,44.5l4.942,5.783c0.567,0.662,1.369,1.001,2.176,1.001c0.657,0,1.317-0.225,1.856-0.686   C94.901,49.572,95.044,47.767,94.016,46.567z"></path><path fill="#000000" d="M77.788,30.643C77.788,30.643,77.788,30.643,77.788,30.643L77.788,30.643c3.032,0,5.563-2.151,6.147-5.01   c0.084-0.408,0.128-0.832,0.128-1.265s-0.044-0.856-0.128-1.265c-0.585-2.859-3.115-5.01-6.146-5.01l0,0c-0.001,0-0.001,0-0.001,0   c-2.382,0-4.454,1.328-5.517,3.284c-0.483,0.889-0.758,1.908-0.758,2.991s0.274,2.102,0.758,2.991   C73.334,29.315,75.406,30.643,77.788,30.643z"></path></g></svg>