<svg xmlns="http://www.w3.org/2000/svg" xmlns:xlink="http://www.w3.org/1999/xlink" version="1.1" x="0px" y="0px" viewBox="0 0 100 100" enable-background="new 0 0 100 100" xml:space="preserve"><g><circle fill="none" cx="32.569" cy="57.128" r="2.27"></circle><path fill="none" d="M9.78,63.232c0,3.463,2.271,6.404,5.401,7.415V55.818C12.051,56.829,9.78,59.77,9.78,63.232z"></path><circle fill="none" cx="67.431" cy="57.128" r="2.27"></circle><circle fill="none" cx="50" cy="19.662" r="4.553"></circle><path fill="none" d="M69.986,39.801H30.015c-5.544,0-10.054,4.51-10.054,10.053v24.985c0,5.543,4.51,10.053,10.054,10.053h39.971   c5.543,0,10.053-4.51,10.053-10.053V49.854C80.039,44.311,75.529,39.801,69.986,39.801z M32.569,64.178   c-3.887,0-7.05-3.163-7.05-7.05c0-3.888,3.163-7.051,7.05-7.051c3.888,0,7.05,3.163,7.05,7.051   C39.62,61.015,36.457,64.178,32.569,64.178z M56.513,76.388H43.488c-1.32,0-2.39-1.07-2.39-2.391c0-1.319,1.07-2.389,2.39-2.389   h13.025c1.319,0,2.389,1.07,2.389,2.389C58.902,75.318,57.832,76.388,56.513,76.388z M67.431,64.178c-3.887,0-7.05-3.163-7.05-7.05   c0-3.888,3.163-7.051,7.05-7.051s7.05,3.163,7.05,7.051C74.481,61.015,71.318,64.178,67.431,64.178z"></path><path fill="none" d="M84.818,55.818v14.829c3.13-1.011,5.401-3.952,5.401-7.415C90.22,59.77,87.949,56.829,84.818,55.818z"></path><path d="M84.818,50.891v-1.037c0-8.179-6.654-14.833-14.833-14.833H52.39v-6.338c3.992-1.059,6.943-4.702,6.943-9.021   c0-5.147-4.187-9.333-9.333-9.333c-5.146,0-9.333,4.186-9.333,9.333c0,4.32,2.951,7.962,6.943,9.021v6.338H30.015   c-8.18,0-14.834,6.654-14.834,14.833v1.037C9.389,52.01,5,57.119,5,63.232c0,6.122,4.398,11.234,10.2,12.347   c0.387,7.835,6.884,14.092,14.815,14.092h39.971c7.931,0,14.427-6.257,14.815-14.092C90.602,74.466,95,69.354,95,63.232   C95,57.119,90.611,52.01,84.818,50.891z M15.182,70.647c-3.13-1.011-5.401-3.952-5.401-7.415c0-3.462,2.271-6.403,5.401-7.414   V70.647z M45.447,19.662c0-2.511,2.043-4.553,4.553-4.553c2.51,0,4.553,2.042,4.553,4.553S52.51,24.214,50,24.214   C47.49,24.214,45.447,22.172,45.447,19.662z M80.039,74.839c0,5.543-4.51,10.053-10.053,10.053H30.015   c-5.544,0-10.054-4.51-10.054-10.053V49.854c0-5.543,4.51-10.053,10.054-10.053h39.971c5.543,0,10.053,4.51,10.053,10.053V74.839z    M84.818,70.647V55.818c3.13,1.011,5.401,3.952,5.401,7.414C90.22,66.696,87.949,69.636,84.818,70.647z"></path><path d="M67.431,50.077c-3.887,0-7.05,3.163-7.05,7.051c0,3.887,3.163,7.05,7.05,7.05s7.05-3.163,7.05-7.05   C74.481,53.24,71.318,50.077,67.431,50.077z M67.431,59.398c-1.252,0-2.27-1.017-2.27-2.269c0-1.252,1.018-2.271,2.27-2.271   c1.252,0,2.271,1.019,2.271,2.271C69.702,58.38,68.683,59.398,67.431,59.398z"></path><path d="M32.569,50.077c-3.887,0-7.05,3.163-7.05,7.051c0,3.887,3.163,7.05,7.05,7.05c3.888,0,7.05-3.163,7.05-7.05   C39.62,53.24,36.457,50.077,32.569,50.077z M32.569,59.398c-1.252,0-2.27-1.017-2.27-2.269c0-1.252,1.018-2.271,2.27-2.271   c1.252,0,2.271,1.019,2.271,2.271C34.84,58.38,33.821,59.398,32.569,59.398z"></path><path d="M56.513,71.608H43.488c-1.32,0-2.39,1.07-2.39,2.389c0,1.321,1.07,2.391,2.39,2.391h13.025c1.319,0,2.389-1.07,2.389-2.391   C58.902,72.678,57.832,71.608,56.513,71.608z"></path></g></svg>