<svg xmlns="http://www.w3.org/2000/svg" data-name="Layer 1" viewBox="0 0 64 64" x="0px" y="0px"><title>skill-idea-knowledge-opinion-bulb</title><path d="M44,50H20a3,3,0,0,0,0,6H44a3,3,0,0,0,0-6Z"></path><path d="M21,57v2a3,3,0,0,0,3,3H40a3,3,0,0,0,3-3V57Z"></path><path d="M33,2.02844V9a.99974.99974,0,0,1-1,1H30a2,2,0,0,0,0,4h2a.99974.99974,0,0,1,1,1V27h6a4,4,0,0,1,8,0h6.85419A23.40137,23.40137,0,0,0,54,24.45056V23.07312C54,11.75635,44.6853,2.53021,33,2.02844ZM45.07465,15.57666,40.82843,20l-4.24622-4.42334a2.76067,2.76067,0,0,1,0-3.79144,2.50129,2.50129,0,0,1,3.63959,0l.60663.63189.60663-.63189a2.50129,2.50129,0,0,1,3.63959,0A2.76067,2.76067,0,0,1,45.07465,15.57666Z"></path><path d="M34,35H32a.99974.99974,0,0,1-1-1V29H26v.5a4.5,4.5,0,0,1-9,0V29H10.44843a33.344,33.344,0,0,0,8.10711,16.31708L19,49H31V40a.99974.99974,0,0,1,1-1h2a2,2,0,0,0,0-4Zm-8.5,7H25v3l-3-3h-.5a2.5,2.5,0,0,1,0-5h4a2.5,2.5,0,0,1,0,5Z"></path><path d="M30,8h1V2.03015a21.81484,21.81484,0,0,0-21,21.5481v.87231A23.40137,23.40137,0,0,0,10.14581,27H18a.99974.99974,0,0,1,1,1v1.5a2.5,2.5,0,0,0,5,0V28a.99974.99974,0,0,1,1-1h6V16H30a4,4,0,0,1,0-8ZM21.90985,18.1803,23.09015,22,20,19.63928,16.90985,22l1.1803-3.8197L15,15.81964h3.81964L20,12l1.18036,3.81964H25Z"></path><path d="M46,29a.99974.99974,0,0,1-1-1V27a2,2,0,0,0-4,0v1a.99974.99974,0,0,1-1,1H33v4h1a4,4,0,0,1,0,8H33v8H45l.44446-3.68292A33.344,33.344,0,0,0,53.55157,29Zm-1,8v3H43V37H40V35h3V32h2v3h3v2Z"></path><rect x="4" y="2" width="2" height="2"></rect><rect x="4" y="6" width="2" height="2"></rect><rect x="6" y="4" width="2" height="2"></rect><rect x="2" y="4" width="2" height="2"></rect><rect x="58" y="2" width="2" height="2"></rect><rect x="58" y="6" width="2" height="2"></rect><rect x="60" y="4" width="2" height="2"></rect><rect x="56" y="4" width="2" height="2"></rect></svg>