<svg xmlns="http://www.w3.org/2000/svg" viewBox="0 0 128 128" x="0px" y="0px"><g><path d="M123.862,82.124c.022.945.4,2.54-.2,3.334a.776.776,0,0,1-1.016.2,18.007,18.007,0,0,1-2.9,8.942c-1.938,3.069-5.064,4.463-8.448,1.881-2.6-1.989-3.569-4.106-3.627-7.489a1.285,1.285,0,0,1-.443-.358,1.009,1.009,0,0,1-.58-.286c-.686-.208-1.538-.265-2.16-.394-1.187-.25-3.684-.744-4.049-.815-3.913,2.26-9.149,2.768-13.491,3.805a16.493,16.493,0,0,1,1.016,7.869.65.65,0,0,1,.121.608,1.173,1.173,0,0,1-.858.851,3.462,3.462,0,0,1-1.409.029,41.751,41.751,0,0,1-1.667,9.192c-.987,3.434-3.469,5.73-6.03,8.005-2.253,2-5.451,2.153-8.327,1.781-3.126-.408-6.2-3.369-7.461-6.159-.715-1.588-1.995-2.976-2.518-4.643a16.349,16.349,0,0,1-.5-5.243,9.429,9.429,0,0,1-1.374-.587,2.107,2.107,0,0,1-.8-1.659,17.11,17.11,0,0,0-3.477-.78,1.782,1.782,0,0,1-.336.479c-.644.666-1.652-.35-1.015-1.008.3-.315.035-1.324.157-1.746a4.291,4.291,0,0,0,.222-1.173,6.605,6.605,0,0,0-2.883.944.753.753,0,0,1-.909.036,8.649,8.649,0,0,1-2.568-.229c.065,1.366.444,2.79-1.438,2.912-1.13.071-2.146.665-3.3.786a14.077,14.077,0,0,0-2.9.508c-.465.644-1.546.415-2.561.444-1.531.05-1.889-.5-1.91-1.917-.029-1.7-.823-3.362-1.023-5.079a12.779,12.779,0,0,1-2.075.429c-.05,0-.078-.014-.121-.014a.81.81,0,0,1-.422.028c-.544-.078-1.081-.193-1.617-.314a.665.665,0,0,1-.029.121c-1.9,4.507-8.67,5.68-12.926,5.73-1.523.014-4.485-1.967-5.386-3.14a13.491,13.491,0,0,1-3.048-8.7,10.821,10.821,0,0,1-2.711-1.13,2.1,2.1,0,0,1-.6-2.79A31.72,31.72,0,0,1,7.792,78.6c2.554-3.412,6.545-5.058,10.523-5.773a.584.584,0,0,1,.093-.3.576.576,0,0,1,.672-.659,13.406,13.406,0,0,1,2.79.9,8.322,8.322,0,0,1,.071-1.1,11.148,11.148,0,0,1-3.347-.479c-.887-.372-3.57-.351-3.878-1.459a4.27,4.27,0,0,1,.322-2.2c-.186-.057-.379-.128-.586-.214a15.071,15.071,0,0,1-1.989-.666c-.83-.486-.586-2.188.036-2.732a4.533,4.533,0,0,1,2.418-1.345.652.652,0,0,1,.529-.236c1.588,0,3.377.122,4.485,1.331.043.007.079,0,.115.007a5.324,5.324,0,0,1,1.309.529,5.826,5.826,0,0,0,1.194.544.1.1,0,0,1,.05.014,2.075,2.075,0,0,1,.415-.043A15.347,15.347,0,0,1,25,65.192a21.584,21.584,0,0,0,2.79.151,25.17,25.17,0,0,1,3.884.35.424.424,0,0,1,.157.057.624.624,0,0,1,.508.329c.587,1,.129,1.9-.222,2.94A5.969,5.969,0,0,1,30.082,71.6a.692.692,0,0,1-.408.164.644.644,0,0,1-.336.05c-1.137-.143-2.089.608-3.219.472a5.194,5.194,0,0,1,.064.58c1.8-.236,3.513-.959,5.279-.83a.805.805,0,0,1,.7.029.6.6,0,0,1,.6.507,11.7,11.7,0,0,1-.236,4.915c-.007.021-.021.036-.028.057.028.029.057.05.086.079a7.117,7.117,0,0,0,.715.837c.007.007.007.014.014.021a26.118,26.118,0,0,1,3.219-.858,15.465,15.465,0,0,1,6.073-.165c-.171-3.126-.486-6.238-.55-9.378-.1-5.322-.258-10.644-.315-15.959-1.552.129-3.1.107-4.671.386-1.224.222-2.733.945-3.978.945-2.618,0-5.629-1.631-8.319-1.982A37.222,37.222,0,0,0,19.738,51a1.089,1.089,0,0,1-.865-.207c-2-2.01-3.892-4.958-6.717-5.895a.764.764,0,0,1-.3-.2.93.93,0,0,1-.121-.122.668.668,0,0,1-.372-.8c.343-1.373,1.359-2.482,1.845-3.813a8.215,8.215,0,0,0,.3-4.206.762.762,0,0,1,1.123-.787,18.154,18.154,0,0,0,3.941-3.963c.251-.321.78-1.623,1.331-1.738,3.6-.715,9.163-1.273,11.381-4.678a1.492,1.492,0,0,1,1.33-.651c.7,0,1.4.007,2.082-.007a45.647,45.647,0,0,1-1.2-5.222,1.369,1.369,0,0,1-.458-.057,1.831,1.831,0,0,1-1.13-1.145,5.705,5.705,0,0,1-.243-.708,2.855,2.855,0,0,1-1.631-.959,2.729,2.729,0,0,1-.351-1.895,1.291,1.291,0,0,1-.357-.05c-1.46-.4-1.939-2.554-.465-3.212,1.895-.844,4.349-2.64,6.509-1.982,1.867.573,1.882,2.1,1.281,3.613a3.167,3.167,0,0,1-.007,1.652,3.605,3.605,0,0,1-.487,1.095c-.107.15-.222.286-.336.422a3.769,3.769,0,0,1,.129.364c.171.637.536,2.361-.294,2.747a.676.676,0,0,1-.136.036.648.648,0,0,1-.4.122,1.456,1.456,0,0,1-.179-.015,48.763,48.763,0,0,0,1.23,5.122c.358-.036.723-.071,1.081-.136,1.337-.221,2.732,0,4.055-.4,1.023-.315,2.032-.873,3.041-1.145.6-.164,1.53.58,1.981.78A15.36,15.36,0,0,0,52.257,24c.859,0,3.226-.658,3.892-.15.965.737,1.209,2.024,2.339,2.7,2.5,1.473,3.7,1.509,6.438,1.509a1.1,1.1,0,0,1,.844.587,7.091,7.091,0,0,1,.486,2.6c.129,1.573.773,3.233.573,4.8v.015a.592.592,0,0,1-.294.837c-2.561,1.23-2.975,4.156-4.013,6.538-.093.222-.2.408-.3.6a.711.711,0,0,1-.816,1.151c-.014-.007-.021-.014-.028-.014a6.488,6.488,0,0,1-3.87,1.617,12.685,12.685,0,0,0-5.329,1.9c-.988.709-1.581,1.782-2.669,2.332-.672.344-1.688.05-2.41.108a39.689,39.689,0,0,0-3.927.8c.057,5.866.243,11.731.343,17.59.043,2.632.079,5.4.214,8.133,3.921.73,8.069,1.016,12.011,1.431.272.029.529.072.794.114a9.889,9.889,0,0,1,.486-1.938c.272-.952.473-1.889.694-2.84a.779.779,0,0,1-.1-.207,2.018,2.018,0,0,1,2.182-2.7c1.33,0,2.682.021,4.02-.029a19.262,19.262,0,0,1-3.2-1.788,22.554,22.554,0,0,0-2.367-1.917.5.5,0,0,1-.158-.136c-1.252-.551-.93-2.969-1.244-4.163a.68.68,0,0,1,.057-.5.64.64,0,0,1,.5-.558,4.621,4.621,0,0,1,.786-.122,4.764,4.764,0,0,0,1.653-.951,1.276,1.276,0,0,1-.787-.9,5.319,5.319,0,0,1,.093-1.116,5.339,5.339,0,0,0-.458-1.817,8.017,8.017,0,0,1-.808-2.747,3.309,3.309,0,0,1-.916-.108c-.665-.178-.737-.929-.722-1.623h-.2c-1.43,0-1.43-1.431,0-1.431,0,0,.079-.007.194-.007-.072-.837-.144-1.9.822-2.025a24.218,24.218,0,0,1,2.862.179.656.656,0,0,1,.45.179c.594-.014,1.18-.029,1.774-.029a2.193,2.193,0,0,0,1.037-.121,1.034,1.034,0,0,1,.5-.158c1.123.093,1,1.038,1,1.91,0,.837.329,2.261-.723,2.583a11.739,11.739,0,0,0-1.216.279.958.958,0,0,1-.143.043,22.315,22.315,0,0,0-.508,2.6c-.15.929-.358,2.053-.422,3.061a2.657,2.657,0,0,1,1.016-.214c1.13,0,2.2.25,3.312.279a15.323,15.323,0,0,1,2.139.042,5.767,5.767,0,0,0,.365-1.7.841.841,0,0,1,.715-.83,4.626,4.626,0,0,1,1.216,0c.057-1.137.215-2.282.215-3.419,0-.6-.051-1.23,0-1.831.007-.229.028-.458.057-.687.393-.308.415-.465.05-.472a.272.272,0,0,1-.079-.036c-1.259.422-3.791,1.324-4.22-.15a2.984,2.984,0,0,1,.672-2.833,7.776,7.776,0,0,0-.865-1.86c-.315-.465-.687-.722-.744-1.294a.7.7,0,0,1,.357-.616,10.32,10.32,0,0,1,1.767-.844,2.132,2.132,0,0,1,1.667-.186c.558.236.679.737.937,1.231a13.731,13.731,0,0,1,.737,1.538,1.513,1.513,0,0,1,1.724.679,3.171,3.171,0,0,1,.522,2.075,3.973,3.973,0,0,1-1.13,1.609,7.1,7.1,0,0,1-.022,2.3c0,1.71-.186,3.4-.229,5.1,1.8.543,3.613,1.573,5.351,1.781.165.021.322.057.486.093-.007-.973-.057-2.046,1.038-2.289a14.954,14.954,0,0,1,2.031-.258,8.679,8.679,0,0,1,3.083-5.758.217.217,0,0,1-.021-.072c0-1.28.043-2.5.093-3.7-1.517-1.946-2.683-4.457-4.593-5.98a.72.72,0,0,1-.178-.7c.207-1.309,2.568-2.246,3.44-3.083.923-.9,1.51-2.332,2.547-3.062a.724.724,0,0,1,1.08.615c.007.179.014.351.014.529.587.966,2.354,3.227,2.754,4.707a.343.343,0,0,0,.093.008c.909.093.916,1.523,0,1.43l-.515-.043c-.708.737-.9,2.246-1.6,3a16.744,16.744,0,0,0-1.459,2.532.621.621,0,0,1-.108.336c-.042,1.173-.078,2.189-.107,2.8a12.259,12.259,0,0,1,4.1.293c.83.172,2.132.036,2.776.673a.935.935,0,0,1,.057.078,3.259,3.259,0,0,1,1.216.558c.379.3.229.773.229,1.166a26.8,26.8,0,0,1-.186,4.221c1.724.222,3.433.479,5.193.608,2.311.164,5.186-.014,7.4.744,1.473.5.7,4.649.644,5.694a59.029,59.029,0,0,0,.3,8.641c.122,1.259,1.044,4.557-.093,5.694-.358.365-1.13.272-1.574.272-.386,0-.35.379-.372.83a6.089,6.089,0,0,1,2.49.35,11.376,11.376,0,0,1,3.526-6.359c3.048-2.539,7.747-2.854,10.237.157a3.745,3.745,0,0,1,1.316,1.946A19.871,19.871,0,0,1,123.862,82.124Zm-1.33.651.071-.021a17.424,17.424,0,0,0-.436-2.618c-.157-.587-1.531-5.673-2.954-4.307,2.418.644,2.954,4.285,3.269,6.481C122.5,82.468,122.51,82.618,122.532,82.775Zm-3.3,10.072a14.992,14.992,0,0,0,1.967-9.414c-.2-1.538-.558-6.3-2.8-6.259a.634.634,0,0,1-.171-.036,9.449,9.449,0,0,1-.694.959,5.881,5.881,0,0,0-1.209,2.7c.865-.995,2.017-1.753,3.054-.851,1.889,1.645,1.417,5.865,1.016,8.09-.308,1.738-1.2,5.687-3.605,5.651-1.839-.028-2.733-2-2.976-3.677-1.574-.064-3.641-.729-4.242-.736-.165,0-.315-.008-.465-.015.122,3.276,1.273,5.608,4.356,6.631C116.752,96.975,117.739,95.093,119.227,92.847Zm-.179-8.519a.328.328,0,0,1,.086.042c-.05-.55-.107-1.108-.165-1.688-.25-2.532-1.623-.923-2.274.058a.637.637,0,0,1,.064.464,2.671,2.671,0,0,0-.036.587,2.37,2.37,0,0,1-.086.494A7.928,7.928,0,0,1,119.048,84.328Zm-.322,4.349a1.442,1.442,0,0,1-.329.078,11.021,11.021,0,0,0-1.817.251c-.193.064-.851.2-.9.236a.885.885,0,0,1-.408.508c.286,1.194,1.2,3.562,2.239,1.988a5.057,5.057,0,0,0,.851-1.824C118.462,89.492,118.6,89.085,118.726,88.677Zm-.264-2.7c-.015-.422.193-.279-.244-.279a16.914,16.914,0,0,1-2.088,0,.282.282,0,0,1-.108-.036c-.007.708-.028,1.388-.086,2.032l.265-.065c.644-.164,1.56.007,2.132-.343C118.59,87.132,118.476,86.245,118.462,85.973Zm-.98-10.351a4.151,4.151,0,0,1,1.373-1.238c-3.405-1.881-8.9.973-9.607,5.008-.486,2.739-1.051,5.6-.536,8.376a.2.2,0,0,1,0,.065h.314a14.527,14.527,0,0,1,2.225.214,21.5,21.5,0,0,0,3.233.444.056.056,0,0,1,.007-.029c-.386-.307-.114-2.761-.093-3.24A17.034,17.034,0,0,1,117.482,75.622ZM107.073,86.009a19.647,19.647,0,0,1,.136-3.863,6.341,6.341,0,0,0-3.984-.129,15.941,15.941,0,0,1-1.989.615.677.677,0,0,0-.429.208v.114a.455.455,0,0,1-.064.243c1.731.952,3.677,1.6,5.465,2.447C106.508,85.787,106.8,85.9,107.073,86.009Zm-1.259-7.7a20.747,20.747,0,0,0-.093-3.326c-.064-.393-.107-.78-.157-1.173a.156.156,0,0,1-.057,0,2.451,2.451,0,0,0-1.3.35,5.141,5.141,0,0,1-.708.265.029.029,0,0,0-.022.007,32.9,32.9,0,0,1-.343,6.145c.122-.029.243-.057.372-.079.007-.021,0-.035.007-.057.129-.458.115-2.089.916-2.31C104.656,78.068,105.807,77.918,105.814,78.3Zm-1.967-5.543a3.712,3.712,0,0,1,1.56-.372c-.337-3.742-.129-7.447-.129-11.253,0-.615-.63-.9-1.488-1.03v.015c-.279,3.877-.379,7.775-.35,11.66,0,.364.007.744.014,1.123A3.671,3.671,0,0,0,103.847,72.761Zm1.03,13.827c-.236-.122-.479-.236-.715-.351-1.059-.486-2.182-.879-3.248-1.359.015.279.029.565.043.844A27.633,27.633,0,0,1,104.877,86.588Zm-2.489-26.575c-.365-.007-.73,0-1.087.007a3.608,3.608,0,0,1-.158,1.009c-.357,1.731-.343,3.484-.572,5.236-.029.2-.05.415-.071.623.808.179.808,1.488-.079,1.4-.022,0-.043-.007-.057-.007-.1,1.058-.179,2.131-.294,3.19a.727.727,0,0,1-.107.9c-.014.122-.029.244-.05.372a4.094,4.094,0,0,1,1.173.057,3.868,3.868,0,0,0,.987.129C102.037,71.759,102,70.6,102,69.5c0-3.119.136-6.267.357-9.378A.487.487,0,0,1,102.388,60.013Zm-.78,20.9a28.016,28.016,0,0,0,.494-6.545,4.144,4.144,0,0,1-1.3-.157,3.2,3.2,0,0,0-1.137-.022h-.015c-.078.365-.186.73-.279,1.088a.747.747,0,0,1-.357.407c.014.058-.05.108-.05.172v.25a7.406,7.406,0,0,1,1.28,3.048c.136.679.35,1.33.443,2C100.979,81.066,101.294,80.987,101.608,80.915Zm-2.181,5.108c.157-.057.114-.916.064-1.588-4.721.98-9.242,2.69-13.928,3.8a11.8,11.8,0,0,1,.794,1.374c3.048-.751,6.145-1.381,9.178-2.2C96.88,87.053,98.11,86.459,99.427,86.023Zm.021-23.4a11.136,11.136,0,0,1,.3-1.924c-.364.05-.729.1-1.094.165-.057.808-.057,1.623-.143,2.432a8.617,8.617,0,0,1,.858.093C99.391,63.132,99.412,62.875,99.448,62.624Zm-.343,4.106c.043-.651.085-1.294.136-1.931a8.186,8.186,0,0,0-.837-.086,2.56,2.56,0,0,1-.058.465,6.134,6.134,0,0,0-.25,1.445ZM99.341,82.2c-.086-.951-.308-1.574-.379-2.439a6.74,6.74,0,0,0-.687-2.268c-.53,1.474-1,2.962-1.467,4.449C97.66,82.024,98.5,82.1,99.341,82.2ZM98.8,70.493c.086-.773.15-1.552.207-2.332-.829-.072-1.731-.15-2.675-.222-.143.63-.365,1.238-.515,1.853A9.428,9.428,0,0,1,98.8,70.493Zm-.444,3.019c.1-.487.186-.98.258-1.481a6.534,6.534,0,0,0-2.983-.959c-.114.995-.265,1.968-.293,2.976.865.122,1.731.229,2.6.322C98.075,74.084,98.21,73.8,98.353,73.512Zm-2.231,10.25c.522-.135,1.044-.271,1.566-.4-.436-.065-.865-.136-1.3-.2C96.308,83.362,96.222,83.562,96.122,83.762ZM96.994,64.3c.008-1.051.115-2.139.208-3.2-.279.035-.558.071-.844.085-.372.029-1.073.051-1.932.086a30.977,30.977,0,0,1-.171,3.52c-.05.407-.065.93-.122,1.438.837.078,1.674.164,2.518.25C96.658,65.757,96.987,65.028,96.994,64.3ZM95.557,80.915a31.745,31.745,0,0,1,1.409-4.227c-1.345.522-2.819.865-4.192,1.416a2.226,2.226,0,0,1,1.137.715,5.8,5.8,0,0,1,.522,2.84c.287.05.58.093.873.129A5.8,5.8,0,0,0,95.557,80.915Zm-.358-5.4a.227.227,0,0,1,.064-.029c-2.275-.3-4.556-.658-6.8-1.023-2.167-.35-4.528-1.109-6.6-.129a28.768,28.768,0,0,1-4.206,1.417,24.467,24.467,0,0,0,5.694.93c2.239.214,4.456.851,6.674,1.03a.786.786,0,0,1,.243.064A29.426,29.426,0,0,1,95.2,75.515Zm-.272-7.683-1.259-.086c-.129.6-.236,1.216-.315,1.846.351.035.723.064,1.116.085C94.634,69.069,94.805,68.454,94.927,67.832ZM94.813,82.94c-.129-.015-.251-.029-.38-.05C94.4,83.469,94.376,83.891,94.813,82.94Zm-.623-12c-.336-.022-.665-.036-.994-.043-.079.944-.122,1.888-.129,2.8l.837.129A23.087,23.087,0,0,1,94.19,70.944ZM93.081,83.4c-.028-.229-.05-.465-.064-.7-.93-.122-1.86-.236-2.783-.344-.028.179-.05.358-.078.544a11.519,11.519,0,0,0,1.416.236A7.918,7.918,0,0,1,93.081,83.4ZM93,61.33c-.286.014-.58.021-.873.035a7.259,7.259,0,0,1,.143,1.581l.694.065C92.981,62.424,92.988,61.773,93,61.33Zm4.47-1.653a49.857,49.857,0,0,0-5.179-.687c-2.582-.171-5.171,0-7.754,0-1.724,0-3.462.058-5.186,0-.35-.014-.25.83-.236,1.2a12.766,12.766,0,0,0,1.624.372,3.292,3.292,0,0,1,1.588.458c.515.014,1.03.05,1.552.05a7.551,7.551,0,0,1,1.08.143.969.969,0,0,1,.608-.522C89.39,59.641,93.518,60.156,97.466,59.677Zm-4.8,6.2c.071-.465.143-.958.193-1.445-.208-.029-.422-.043-.63-.057a.054.054,0,0,0-.007.036c-.014.558-.029,1.1-.079,1.645.172.014.344.021.508.036A1.621,1.621,0,0,1,92.667,65.879ZM89.913,85.572c.929-.272,1.852-.551,2.782-.83A13.742,13.742,0,0,0,90,84.22Q89.934,84.907,89.913,85.572Zm2.16-27.962c.243-1.374.071-2.8.186-4.185a2.722,2.722,0,0,0-.344-.122,36.95,36.95,0,0,0-1.766,4.228c.651.029,1.287.086,1.924.15A.24.24,0,0,1,92.073,57.61ZM92.2,67.639c-.072,0-.151-.007-.229-.015a7.829,7.829,0,0,0-.244,1.746l.186.021c0-.064.008-.136.015-.207A9.238,9.238,0,0,1,92.2,67.639ZM92.917,81.4c-.036-.7-.079-1.96-.923-1.924-.658.021-1.338.15-1.466.987-.022.157-.05.314-.072.479C91.279,81.087,92.094,81.244,92.917,81.4ZM91.8,70.858c-.086,0-.172,0-.257-.007a.084.084,0,0,1-.008.043c-.207.829-.45,1.652-.736,2.453.279.043.565.093.844.136C91.665,72.61,91.729,71.738,91.8,70.858Zm-1.009-6.832a8.836,8.836,0,0,0-.136-2.575c-.922.057-1.8.129-2.539.222a16.68,16.68,0,0,1,.05,4.135c.873.035,1.731.078,2.568.143A19.162,19.162,0,0,0,90.792,64.026Zm-.271,3.5c-.287-.014-.566-.035-.837-.05-.05.53-.136,1.059-.236,1.588.293.036.586.065.887.108A11.438,11.438,0,0,1,90.521,67.524Zm.057-14.714c-.322-.043-.694-.107-.93-.15a1.138,1.138,0,0,1-.086.136,10.644,10.644,0,0,0-1.152,2.775,14.606,14.606,0,0,1-.858,1.9c.393.014.772.021,1.144.028a.762.762,0,0,1,.036-.243A39.645,39.645,0,0,1,90.578,52.81Zm-.515,17.94c-.265-.035-.544-.078-.837-.121a2.282,2.282,0,0,0-.022.229,8.483,8.483,0,0,1-.479,2.167c.215.036.429.065.644.093A20.8,20.8,0,0,0,90.063,70.75Zm-1.016,9.972a5.657,5.657,0,0,1,.315-1.652c-2.482-.243-5.043-.715-7.5-1.145a8.669,8.669,0,0,0-.637,1.71c2.275.379,4.55.765,6.832.973C88.389,80.636,88.718,80.679,89.047,80.722ZM88.768,82.6c.014-.136.036-.279.057-.415-.772-.086-1.552-.179-2.317-.258-2-.207-4.006-.572-6.016-.923a10.935,10.935,0,0,0-.487,1.009,8.9,8.9,0,0,1,1.66,1.145c.987-.308,2.189-1.224,3.169-1.224.922,0,1.8.537,2.739.537A6.957,6.957,0,0,1,88.768,82.6Zm-.3,3.211c.007-.586.05-1.166.114-1.738-.522-.057-1.03-.114-1.495-.193-.78-.143-1.846-.644-2.554-.279a12.311,12.311,0,0,1-1.738.723,9.667,9.667,0,0,1,1.044,1.545.7.7,0,0,1,.079.436,9.2,9.2,0,0,1,.687.694c1.309-.3,2.611-.644,3.9-1.016A.673.673,0,0,1,88.468,85.815ZM88.06,68.962a14.983,14.983,0,0,0,.207-1.581c-1.18-.078-2.153-.136-2.8-.171-.078.729-.157,1.459-.243,2.189a8.007,8.007,0,0,1,2.468-.451C87.809,68.948,87.938,68.962,88.06,68.962Zm-.243,1.488a4.693,4.693,0,0,0-1.445.079c-.451.114-.895.272-1.331.422q-.1.74-.214,1.481c.464.078.944.178,1.437.243.358.043.709.1,1.066.15a4.081,4.081,0,0,0,.265-.694A16.7,16.7,0,0,0,87.817,70.45Zm.271-18.005c-.307-.029-.615-.043-.915-.057a.685.685,0,0,1-.115.229A15.314,15.314,0,0,0,85,57.338c.344.021.68.036,1.023.057a.709.709,0,0,1,.1-.315C87.015,55.657,87.2,53.847,88.088,52.445Zm-.922-11.767c-.05-.093-.1-.193-.151-.286-.293-.565-.615-1.1-.944-1.638-.064.622-.136,1.251-.186,1.881C86.314,40.642,86.744,40.656,87.166,40.678ZM85.5,44.541c.508-.816,1.016-1.631,1.531-2.44q-.741-.032-1.481-.043C85.542,42.8,85.52,43.654,85.5,44.541Zm1.366,19.814H85.849c-.071.458-.143.923-.2,1.381.358.007.715.007,1.059.014A5.966,5.966,0,0,0,86.865,64.355Zm-.765-1.43h.694c-.029-.336-.058-.673-.086-.995-.272.086-.444.179-.472.294C86.186,62.453,86.143,62.689,86.1,62.925Zm.429,35.931c.658-3.748-1.288-11.5-5.572-12.9a7.617,7.617,0,0,1,2.11,2.368,20.23,20.23,0,0,1,2.79,10.558c.221.008.45.036.672.051A.248.248,0,0,1,86.529,98.856ZM84.676,63.282c.007-.186.007-.422.015-.679a6.165,6.165,0,0,0-.816-.1c-.422-.007-.844-.029-1.266-.043a6.321,6.321,0,0,0-.3.837c-.287,1.5-.287,3.1-.6,4.585-.072.351-.115.8-.165,1.309a2.145,2.145,0,0,1,.673.258c.786.472.071,1.752-.723,1.28a.552.552,0,0,0-.093-.043,6.409,6.409,0,0,1-.687,2.461c.637-.222,1.266-.444,1.9-.658a3.445,3.445,0,0,1,.816-.158.706.706,0,0,1,0-.178c.035-.244.078-.487.121-.737a.026.026,0,0,1-.021.007.716.716,0,0,1-.379-1.381c.229-.057.45-.121.665-.186.164-.951.329-1.924.465-2.89a.865.865,0,0,1,.164-1.187C84.548,64.928,84.633,64.084,84.676,63.282Zm-.221-22.661c.085-1.045.228-2.075.3-3.112a6.606,6.606,0,0,1-1.166,1.509c-.615.515-1.245,1.073-1.9,1.581C82.616,40.613,83.539,40.613,84.455,40.621ZM85.485,52.4c-.923.222-2.018,1.817-2.39,2.389a6.668,6.668,0,0,0-.879,2.468c.436,0,.879.007,1.323.022.007-.029,0-.058.007-.093A19.244,19.244,0,0,1,85.485,52.4ZM84,45.585c.05-1.18.093-2.361.1-3.541-.858,0-1.717,0-2.582-.014.343.479.643.973.98,1.452C82.981,44.169,83.482,44.884,84,45.585Zm-1.517,64.13c2.368-5.136,2.976-12.6.537-17.755-.93-1.967-2.053-5.866-5.065-5.672-3.462.221-5.322,2.217-7.053,4.957a.686.686,0,0,1-.308.272,15.9,15.9,0,0,0-1.673,5.3c-.222,1.545-.48,7.111-2.354,7.576-1.094.279-3.448-.487-4.506-.573a11.593,11.593,0,0,1-1.31-.193c.136,5.737,4.185,14.514,10.9,14.379C76.829,117.9,80.42,114.193,82.487,109.715ZM81.164,62.073c-.429-.057-.866-.121-1.3-.193-.079.394-.179.78-.279,1.166.415.072.837.158,1.273.258a3.721,3.721,0,0,1,.079-.386C81,62.631,81.078,62.352,81.164,62.073Zm-.529,2.619c-.022-.008-.029,0-.043-.008-.387-.085-.88-.157-1.395-.228a18.915,18.915,0,0,0-.522,2.324c.558.008,1.108.022,1.645.022a4.267,4.267,0,0,1,.071-.551C80.506,65.736,80.563,65.214,80.635,64.692Zm-.422,3.533c-.551,0-1.109-.007-1.667-.014-.029.343-.043.694-.05,1.044.286,0,.572-.007.851-.021.258-.014.529-.043.8-.072C80.17,68.848,80.2,68.533,80.213,68.225ZM79.74,79.392a11.934,11.934,0,0,1,.6-1.688,12.309,12.309,0,0,1-3.977-.988,17.5,17.5,0,0,1-.787,1.824c-.043.086-.093.172-.136.258C76.872,78.948,78.31,79.156,79.74,79.392Zm-.071-7.2a6.97,6.97,0,0,0,.336-1.58c-.558.071-1.116.178-1.488.178h-.028a7.337,7.337,0,0,1-.151,1.281C78.782,72.131,79.225,72.174,79.669,72.195Zm-9.2,16.711c2.575-3.277,6.774-5.551,10.715-4.228-4.027-4.077-11.273-2.747-15.787.329a11.3,11.3,0,0,0-1.9,1.667,23.6,23.6,0,0,1,3.584.658,8,8,0,0,1,2.118.608C69.683,88.255,70.019,88.612,70.47,88.906Zm8.24-7.476c.1-.228.2-.457.3-.679-1.467-.25-2.926-.465-4.385-.594a2.341,2.341,0,0,0-.258.465.329.329,0,0,1,.007.079A12.208,12.208,0,0,1,78.71,81.43Zm-.543-18.591c.107-.4.2-.794.286-1.2-.544-.1-1.08-.214-1.617-.35a5.78,5.78,0,0,1-.207,1.43C77.165,62.739,77.673,62.782,78.167,62.839Zm-.923,3.927a22.079,22.079,0,0,1,.536-2.461c-.651-.064-1.259-.114-1.7-.143-.036.1-.072.2-.1.3A19.905,19.905,0,0,1,75.32,66.8C75.963,66.773,76.607,66.759,77.244,66.766Zm-.15,2.482c.007-.357.021-.708.035-1.058-.794-.008-1.588.014-2.382.071a.869.869,0,0,1,.315.2,1.076,1.076,0,0,1,.258.737C75.913,69.213,76.5,69.227,77.094,69.248Zm-.043,2.49a5.965,5.965,0,0,0,.014-.945h-1.9c-.021.222-.035.465-.071.7q.954.216,1.931.387C77.029,71.831,77.044,71.788,77.051,71.738Zm-.894,1.5a.633.633,0,0,1,.114-.043c-.651-.122-1.3-.251-1.938-.394-.008,0-.015-.007-.022-.007a1.972,1.972,0,0,1-.894.165c-.05.422-.086.837-.115,1.252A19.428,19.428,0,0,0,76.157,73.233Zm-.251,1.7c.007-.007.007-.014.015-.021-.88.329-1.875.465-2.719.858-.057,1.066-.086,2.125-.071,3.191a.651.651,0,0,1,.229-.036.59.59,0,0,1,.5-.258,27.143,27.143,0,0,0,1.46-3.176.751.751,0,0,1,.365-.393A.829.829,0,0,1,75.906,74.935ZM74.862,63.111c.243-.916.472-1.96.536-2.246-.157-.058-.322-.1-.479-.158-.343-.129-.737-.286-1.144-.45-.551,1.523-.959,3.075-1.4,4.649-.2.723-.308,1.459-.515,2.153,0,.058-.008.122-.008.179a16.746,16.746,0,0,1,1.86-.322.709.709,0,0,1,.065-.193,16.2,16.2,0,0,0,.815-2.668c.079-.243.165-.551.251-.88C74.855,63.154,74.855,63.132,74.862,63.111Zm-1.03,6.624c-.007-.065-.015-.115-.022-.158-.973.022-1.86-.057-2.947-.086a1.5,1.5,0,0,1-.322,1.174,1.334,1.334,0,0,1-1.037.415c.014.078.029.15.043.221a3.909,3.909,0,0,0,.515.115,16.516,16.516,0,0,0,2.225.093c.722,0,1.294.314,1.38-.487C73.717,70.593,73.81,70.164,73.832,69.735Zm-1.882-8.4c.144-.53.3-1.066.494-1.6a9.117,9.117,0,0,0-2.589-.593c-.1.536-.3,1.044-.458,1.595.293.064.593.1.9.143a1.293,1.293,0,0,1-.007-.165.716.716,0,0,1,1.431,0c0,.194.021.387.035.573C71.822,61.315,71.886,61.322,71.95,61.337Zm.036,11.6a14.414,14.414,0,0,1-1.674-.064c-.028.73.036,1.6.036,2.268v3.04c0,1.023.1,2.031.079,3.04.45-.114.894-.207,1.345-.286A48.886,48.886,0,0,1,71.986,72.939ZM70.942,49.705c.579-.572,1.051-1.216.565-2.017a2.247,2.247,0,0,1-.315,0,3.774,3.774,0,0,0-.794.179,10.6,10.6,0,0,1-1.137.572,3.05,3.05,0,0,0-1.052.687,6.007,6.007,0,0,0-.486,1.28,12.294,12.294,0,0,0,3.033-.686A.547.547,0,0,1,70.942,49.705ZM70.248,67.3a3.816,3.816,0,0,0,.186-.343c0-.572,0-1.137-.014-1.71-.179-.007-.358-.014-.537-.028A9.293,9.293,0,0,0,70.248,67.3Zm.114-3.476c-.028-.5-.064-.994-.114-1.488-.3-.05-.6-.086-.9-.136a12.838,12.838,0,0,0,.322,1.531A3.832,3.832,0,0,0,70.362,63.819Zm-1.216,5.572a.8.8,0,0,1,.129-.007,8.223,8.223,0,0,0-.3-1.359,8.677,8.677,0,0,1-.523-2.761c-.071-.88-.371-1.767-.507-2.654a.64.64,0,0,1-.115-.122,24.05,24.05,0,0,1-2.639,1.174c.028.257.035.522.05.751a11.039,11.039,0,0,1,.307,2.339c.987.722,2.053,1.316,2.983,2.1.208.172.408.358.6.536Zm.079,8.692c-.007-.472-.007-.945-.007-1.417,0-.107-.007-.221-.007-.329-.394-.036-.78-.093-1.173-.136a6.926,6.926,0,0,1,.279,1.488c0,.136,0,.279.007.422C68.617,78.09,68.925,78.083,69.225,78.083Zm0,1.423c-.286.007-.572.014-.858.029.007.129.007.25.014.379.064.923-1.366.916-1.431,0-.007-.086-.007-.165-.014-.25-1.6.186-3.148.5-4.657.794a17.831,17.831,0,0,0,2.647.35.686.686,0,0,1,.658.58,2.305,2.305,0,0,1,.508,1.516A19.221,19.221,0,0,1,69.139,81.6C69.2,80.9,69.225,80.207,69.225,79.506Zm.415-32.819a19.032,19.032,0,0,0-.851-1.91c-.394-.065-.959.364-1.3.522-.05.028-.115.05-.172.079a7.927,7.927,0,0,1,1.009,1.938c.071-.036.143-.079.214-.114C68.846,47.066,69.232,46.873,69.64,46.687ZM69.125,74.9a19.728,19.728,0,0,1-.064-2.246,1.536,1.536,0,0,1-.616-.35,23.067,23.067,0,0,1-4.478.579c-1.2.057-2.41.057-3.619.057a4.5,4.5,0,0,0-1.116.015,1.284,1.284,0,0,1-.065.379c.58.064,1.188.257,1.724.336.93.143,1.925.186,2.847.379A52.472,52.472,0,0,0,69.125,74.9Zm-.78,18a11.732,11.732,0,0,1,1.3-2.818,8.874,8.874,0,0,0-2.375-1.231c-1.338-.329-3.777-.629-4.9-.758a17.332,17.332,0,0,0-1.738,3.141.41.41,0,0,1-.022.05,23.738,23.738,0,0,0-1.759,7.532,20.783,20.783,0,0,0-.179,2.325c.035.944,3.655,1.273,4.113,1.309.594.05,3.355.486,3.362.465C67.344,99.779,67.394,96.131,68.345,92.9ZM66.893,78.24v-.25a12.092,12.092,0,0,0-.336-1.882.349.349,0,0,1,.007-.085c-.844-.115-1.688-.237-2.532-.372a5.172,5.172,0,0,1-.866,1.909,4.416,4.416,0,0,0-.608,1.41C63.982,78.7,65.419,78.412,66.893,78.24ZM66.12,61.573a4.764,4.764,0,0,1-.908-.043c-1.288-.229-2.775-.537-3.9.408-.186.157-.379.321-.579.479.129.007.25.021.372.028a30.239,30.239,0,0,1,3.1.1C64.854,62.224,65.5,61.923,66.12,61.573Zm-3.161,7.876a6.992,6.992,0,0,0,4.392.307c-.937-.729-1.967-1.352-2.919-2.074-.329.014-.679-.029-1.058.014a21.966,21.966,0,0,1-2.74.072A11.387,11.387,0,0,0,62.959,69.449Zm2.46-33.786c-.014-.765-.4-1.137-.436-1.945a14.557,14.557,0,0,0-.5-4.128c-.007.007-.014.007-.028.007a.688.688,0,0,1-.158.215c-3.283,2.861-6.552,5.572-10.587,7.382a36.372,36.372,0,0,1-5.529,1.881c1.538-.085,3.069-.157,4.585-.236A39.758,39.758,0,0,0,65.419,35.663ZM64.7,83.734c0-.029-.014-.043-.014-.065a7.973,7.973,0,0,0-.05-.937,1.75,1.75,0,0,1-.036-.2.538.538,0,0,1-.251-.236c-1.251.193-2.5.436-3.741.687.2,1.38.465,2.782.594,4.192a.307.307,0,0,1,.057-.079.614.614,0,0,1,.322-.458,11.02,11.02,0,0,1,2-2.1C63.939,84.256,64.311,83.984,64.7,83.734ZM63.374,66.5h.608c-.029-.214-.458-2.439-.194-2.525a4.557,4.557,0,0,1-2.217.007,8.862,8.862,0,0,0-3.19-.128c.15.694.279,1.4.379,2.1.1.744.622.493,1.4.493C61.228,66.444,62.308,66.5,63.374,66.5ZM63.2,52.846v-1.6c-.022,0-.036.008-.05.008a5.24,5.24,0,0,1-1,.071c-.458-.014-.915-.007-1.373.007a16.767,16.767,0,0,1-.172,1.789,4.691,4.691,0,0,1,1.273.028c.229-.071.451-.164.7-.222C62.68,52.91,62.973,52.889,63.2,52.846Zm-.809-13.477a4.533,4.533,0,0,1,.6-1.274,39.192,39.192,0,0,1-8.14,2c-3.8.479-7.633.444-11.417.773a72.387,72.387,0,0,0,9.2,2.189c2.7.558,5.759-.422,8.341.386A30.5,30.5,0,0,0,62.386,39.369Zm-1.53,39.915c.422-1.344,1.259-2.553,1.731-3.862-1.173-.194-2.347-.387-3.52-.565-.214.929-.429,1.845-.665,2.775a6.086,6.086,0,0,0-.451,1.745.178.178,0,0,1-.021.065c.379.086.751.171,1.123.264a.58.58,0,0,1,.358-.186C59.89,79.456,60.369,79.37,60.856,79.284Zm0-23.734a6.085,6.085,0,0,1,.15-.9.7.7,0,0,1-.236-.164,1.415,1.415,0,0,0-1.088.236c-.143.1-.279.2-.422.3.115.444.465.959.573,1.338.193.672.508,1.288.679,1.967,0-.014.007-.029.007-.043A20.736,20.736,0,0,1,60.856,55.55Zm-1.338,34.7c.093-.208.186-.415.286-.616a18.636,18.636,0,0,1-3.405.709,11.525,11.525,0,0,0-2.132.493,6.482,6.482,0,0,1-1.037.15c0,.115,0,.265-.014.48.222-.065.443-.129.665-.2.88-.279,1.982.072,2.861-.229A19.79,19.79,0,0,1,59.518,90.251Zm.308-2.046a48.433,48.433,0,0,0-.616-4.929c-1.988.422-3.977.866-5.958,1.259-1.045.215-2.347.758-3.491.966-.086,2.11-.043,5.286-.007,7a21.714,21.714,0,0,1,2.081-.658c-.422-2.361,1.1-2.2,3.005-2.661a20.19,20.19,0,0,1,2.546-.415A24.3,24.3,0,0,0,59.826,88.205Zm-.558-36.4c.007-.186.028-.429.028-.658-.551-.057-1.1-.143-1.652-.157.007.164.014.336.028.5.6.064,1.038.937.4,1.323a1.451,1.451,0,0,1-.358.157c0,.1,0,.2-.007.3,0,.007.007.014.007.028a4.41,4.41,0,0,0,1.445-.179C59.21,52.688,59.26,52.223,59.268,51.8Zm2.99-22.118c-2.075-.179-5.208-1.738-6.238-3.419a6.846,6.846,0,0,0-.537-.8c-.007.014-.007.021-.014.028-2.017,2.79-3.927,5.716-5.873,8.556-.865,1.266-2.3,1.767-3.29,2.975A7.341,7.341,0,0,1,44.56,38.5a48.562,48.562,0,0,0,9.092-2.833A39.933,39.933,0,0,0,62.258,29.683ZM59.9,44.669c-1.717-.279-3.777.151-5.372.065a42.536,42.536,0,0,1-5.5-1.016,43.73,43.73,0,0,1-6.266-1.6c.193.214.379.429.55.651.68.88,1.717,1.345,2.4,2.239.851,1.123,2.117,1.6,3.119,2.539a4.734,4.734,0,0,1,1.015,1.5,12.947,12.947,0,0,1,2.268-1.945c.973-.437,1.96-.916,2.969-1.259C56.149,45.478,58.509,45.428,59.9,44.669Zm.172,36.962c-1.388-.294-2.947-1.123-4.328-1.123a33.726,33.726,0,0,1-3.376-.186,1.246,1.246,0,0,1-1.152,1.087,33.059,33.059,0,0,0-6.424.98c-.236.064-.458.122-.665.179.036.329.071.658.114.973.415.086.866.186,1.417.279,2.432.4,4.277-.072,6.617-.544C54.875,82.761,57.465,82.16,60.069,81.631Zm-2.01,12.5c.236-.737.493-1.5.787-2.261a15.365,15.365,0,0,1-4,.794c-.208,0-.422.015-.651.036a7.325,7.325,0,0,1,0,2.3A24.063,24.063,0,0,1,58.059,94.135Zm-.966,5.351a22.528,22.528,0,0,1,.551-3.849c-1.181.2-2.318.658-3.484.894a3.673,3.673,0,0,1-.05.98,3.905,3.905,0,0,0-.272,1.059v.214A17.522,17.522,0,0,1,57.093,99.486ZM53.774,25.42c-.143.007-.3.007-.472.007a28.662,28.662,0,0,1-4.364-.322c-1.216-.179-2.575-.837-3.684-1.095a13.721,13.721,0,0,1-1.531,6.846c-1.266,2.161-1.316,5.072-1.8,7.633a11.559,11.559,0,0,0,3.369-2.482c1.023-1.295,2.554-1.932,3.455-3.248C50.419,30.32,52.064,27.823,53.774,25.42Zm-1,69.938a9.248,9.248,0,0,0,.058-2.167.648.648,0,0,1-.365-.144,16.2,16.2,0,0,0-2.547.909.786.786,0,0,1-.107.315c.036.6.05,1.194.107,1.788A15.972,15.972,0,0,1,52.772,95.358Zm-4.256.966c-.057-.644-.079-1.288-.129-1.932a33.1,33.1,0,0,1-6.545-1.631.671.671,0,0,1-.293-.193,5.494,5.494,0,0,0-1,.243c-.88.38-1.867.43-2.775.737a.363.363,0,0,1-.086.029c1.91.608,3.848,1.144,5.73,1.781a15.662,15.662,0,0,0,3.605.63C47.343,96.016,48.03,96.266,48.516,96.324Zm-.172-3.37c-.021-2.453-.114-4.921-.007-7.418-1.144-.128-2.639-.486-3.97-.615a48.407,48.407,0,0,0,.444,6.31.85.85,0,0,1-.315.879A28.738,28.738,0,0,0,48.344,92.954ZM43.981,81.166c1.452-.258,4.878-.794,6.338-1.088-1.917-.257-3.834-.579-5.723-.822-.265-.029-.522-.072-.773-.107C43.866,79.828,43.916,80.5,43.981,81.166ZM48.545,49.7A6.1,6.1,0,0,0,46.5,47.645c-.909-.629-1.467-1.473-2.289-2.16a30.6,30.6,0,0,1-2.6-2.418c.172.494.358.994.522,1.517a20.8,20.8,0,0,1,.716,2.589,11.1,11.1,0,0,0,.457,2.811.714.714,0,0,1,.051.379A37.8,37.8,0,0,1,48.545,49.7ZM45,98.942a1.913,1.913,0,0,0-.015-.537,6.114,6.114,0,0,1-.071-.715c-1.152.057-2.3.5-3.477.522-.307.007-.586.05-.894.086a.356.356,0,0,1-.236-.014.269.269,0,0,1,0,.107c-.064.522-.122,1.03-.15,1.545a7.876,7.876,0,0,0,3.219-.722A5.78,5.78,0,0,1,45,98.942Zm-3-68.1c.88-2.354,1.789-4.256,1.81-6.824a33.423,33.423,0,0,1-7.239,1.187c.3.973.608,1.939.908,2.869,1.088,3.362,1.538,7.232,2.776,10.551.05.043.1.078.15.114C41.027,36.143,41.069,33.31,42,30.842Zm.9,52.606c-.007-.193-.022-.387-.029-.58a12.712,12.712,0,0,1-4.456.022c-1.589-.172-3.112-.594-4.679-.859a.607.607,0,0,1-.5-.436,6.523,6.523,0,0,1-.086-1.474,51.566,51.566,0,0,1-5.465,1.6c.45.05.9.1,1.366.186,4.142.708,8.283,1.287,12.447,1.924A4.65,4.65,0,0,1,42.9,83.448Zm-.093-2.025c-.036-.808-.079-1.624-.122-2.432a13.939,13.939,0,0,0-6.9.243l-1.259.422a1.607,1.607,0,0,1,.057.437c0,1.43,1.538,1.116,3.055,1.337A12.721,12.721,0,0,0,42.808,81.423Zm-1.982,9.722c1.238-.408,1.259-.2,1.145-1.631-.05-.658-.115-4-.179-4.035a.684.684,0,0,1-.243-.2c-1.96.007-4.471,1.5-6.36,2a20.047,20.047,0,0,1-3.39.465,16.951,16.951,0,0,1,.1,2.9,22.831,22.831,0,0,1-.043,3.405,36.826,36.826,0,0,0,4.778-1.624C38.022,91.953,39.446,91.61,40.826,91.145Zm1.181-40.6c-.709-1.759-.694-3.741-1.252-5.579-.272-.916-.587-1.76-.844-2.626a13.349,13.349,0,0,0-.408,1.824,11.678,11.678,0,0,1-1.109,3.033c-.243.544-.479,1.932-1.066,2.34a7.061,7.061,0,0,0-1.788,2.117,29.474,29.474,0,0,1,4.907-.994C40.976,50.65,41.491,50.6,42.007,50.542ZM40.132,96.925c.73-.129,1.474-.229,2.211-.308-1.359-.365-2.683-.823-4.013-1.288a1,1,0,0,1-.122.122c.1.615.236,1.245.308,1.81.057.479.136.973.207,1.466C38.823,97.862,39.138,97.1,40.132,96.925ZM34.7,39.791c1.223-.079,2.475-.15,3.72-.143A88.1,88.1,0,0,1,29.6,36.085c-2.919-1.523-6.288-2.7-8.584-5.143a.8.8,0,0,1-.151-.243,2.325,2.325,0,0,0-.751.637,23.151,23.151,0,0,1-3.905,4.249c1.452.693,2.746,1.673,4.184,2.482,1.538.865,3.935,1.03,5.659,1.144C28.945,39.412,31.777,39.97,34.7,39.791Zm3.255,45.152c.121-.05.243-.1.357-.15-2.933-.43-5.851-.852-8.777-1.36a22.661,22.661,0,0,0-7.518-.264,24.24,24.24,0,0,0-3.341.744c.551.071,1.109.121,1.617.2a41.125,41.125,0,0,0,5.351.808c1.48.029,3.891.186,5.207.952a1.5,1.5,0,0,1,.487.508c.035-.008.057-.029.086-.029A23.11,23.11,0,0,0,37.951,84.943Zm.042-47c-.1-.164-.2-.322-.3-.472a41.267,41.267,0,0,0-3.262-4.206c-.887-1.052-1.724-2.432-2.5-3.577a9.32,9.32,0,0,1-1.2-2.453,15.859,15.859,0,0,1-2.282,1.194,23.242,23.242,0,0,1-4.943,1.66c-.365.071-.737.121-1.109.179,2.332,2.253,6,3.8,8.913,5.036C33.515,36.236,35.769,37.065,37.993,37.945Zm-.586,62.8a1.156,1.156,0,0,1,.136-.114,12.228,12.228,0,0,0-.193-1.345c-.086-.665-.229-1.352-.265-2.024-.043-.737-.236-1.4-.343-2.1-.093-.079-.179-.157-.265-.243a2.815,2.815,0,0,0-.358-.308,1.107,1.107,0,0,0-.186-.136.8.8,0,0,0-.086-.043,1.137,1.137,0,0,1-.236-.086c-.343.129-.686.251-1.03.372.086,1.617.844,3.112,1.023,4.686a7.059,7.059,0,0,1,.036,1.109c-.021.422.014.228.494.214C36.556,100.716,36.985,100.737,37.407,100.744Zm-.25-54.272a18.681,18.681,0,0,0,1.3-4.178,10.633,10.633,0,0,0-2.382,1.281c-1.645,1.223-3.047,2.9-4.714,4.049A19.059,19.059,0,0,1,25.6,50.213a35.821,35.821,0,0,1,6.252,1.474,4.854,4.854,0,0,0,1.945.222.737.737,0,0,1,.165-.458c.544-.7,1.052-2.3,1.931-2.733C36.692,48.325,36.756,47.223,37.157,46.472ZM36.4,33.331c.48.608.966,1.188,1.424,1.8-.444-1.946-.837-3.913-1.424-5.752-.422-1.294-.858-2.632-1.273-3.991-.029.007-.064.007-.093.014-.665.1-1.173.057-1.645.122a2.435,2.435,0,0,0-1.452.729C32.521,28.739,34.817,31.321,36.4,33.331Zm-.973-21.789c1.46-3.848-6,.608-6.008.594.322.486,2.689.071,3.254.071A12.048,12.048,0,0,0,35.425,11.542ZM35.2,13.8a3.124,3.124,0,0,0,.114-.736,8.693,8.693,0,0,1-2.647.579,8.063,8.063,0,0,0-1.666.086v.916c0,.135.05.279.064.414.022.015.079,0,.043-.057a1.433,1.433,0,0,0,1.073.48c.272-.136.579-.229.837-.337a5.1,5.1,0,0,1,1.538-.365A3.144,3.144,0,0,0,35.2,13.8ZM34.7,17.3v-.165a3.193,3.193,0,0,0-.136-.9c-.157.021-.322.036-.479.071a5.916,5.916,0,0,0-.844.279c-.029.015-.072.022-.108.036a1.169,1.169,0,0,0,.215.594c.157.143.494.043.694.05C34.267,17.272,34.488,17.286,34.7,17.3ZM32.586,44.476c.972-.772,1.974-1.652,3-2.382a31.656,31.656,0,0,0-3.5.758c-2.089.6-5.422.623-7.139,2.1-.909.78-3.491-.028-4.392-.028-1.839,0-3.677-.022-5.515-.036a21.473,21.473,0,0,1,3.233,2.99c.343.386,1.438,1.7,1.459,1.7.551,0,1.138-.035,1.71-.035a.286.286,0,0,1,.078-.022,25.6,25.6,0,0,0,5.709-1.466C29.574,47.309,30.769,45.921,32.586,44.476Zm-.759,34.487c-.043-.058-.093-.108-.128-.165-.136-.207-.423-.558-.7-.544a4.107,4.107,0,0,0-.759.086c-1.173.293-2.432.615-3.719.866a2.661,2.661,0,0,1,.193,1.066v.186A40.876,40.876,0,0,0,31.827,78.963Zm-.88-4.357c.008-.386-.014-.837.008-1.273a36.262,36.262,0,0,0-3.577.715c-.708.107-1.509-.014-2.239.086.079.615.272,1.323.343,2.017.065.6-.057,1.266-.021,1.882a19.745,19.745,0,0,0,3.383-.773,8.91,8.91,0,0,1,1.9-.415C30.8,76.1,30.919,75.364,30.947,74.606Zm-.35-5.765a5.1,5.1,0,0,0,.5-1.138c-.794.551-1.774.952-2.533,1.4-1.073.63-2.189,1.145-3.283,1.724a3.789,3.789,0,0,0,.837.022,13.762,13.762,0,0,1,3.2-.48A6.022,6.022,0,0,0,30.6,68.841ZM30.182,94.07c.78.194.122-.393.165-1.223a24.523,24.523,0,0,0,.1-3.233,4.92,4.92,0,0,0-.422-2.468c-1.467-.193-2.926-.6-4.385-.794-2.525-.336-6.209-.272-8.8-1.316a16.665,16.665,0,0,1-.086,3.283c-.071,1.1-.765,2.847.673,3.183.922.222,1.874.365,2.8.6,2.2.544,4.463.558,6.652,1.166C27.979,93.577,29.08,93.791,30.182,94.07Zm-3-25.816c.665-.393,1.788-.83,2.661-1.359a39.857,39.857,0,0,1-5.229-.322c-.916-.186-1.638-.565-2.432.007a19.278,19.278,0,0,0-2.812,3.055,16.034,16.034,0,0,1,1.989.35c.415.115,1.08.293,1.788.458a.832.832,0,0,1,.165-.15C24.567,69.527,25.926,69,27.185,68.254Zm-1.259-25.33a59.1,59.1,0,0,1,6.91-1.731c-2.625-.129-5.251-.623-7.854-.623-4.056,0-6.438-2.711-9.915-3.948a6.618,6.618,0,0,1-.157,2.947c-.494,1.331-1.424,2.561-1.939,3.877C17.227,43.575,21.984,44.2,25.926,42.924ZM27.571,94.95c-.808-.207-1.624-.422-2.446-.586a.712.712,0,0,1-.258.293c-.343.236-.594.815-.944,1.094a8.31,8.31,0,0,1-.9.694c-.651.394-2.189.058-2.876-.164a5.643,5.643,0,0,1-3.72-3.477,1.415,1.415,0,0,1-.014-.164c-1.9-.859-1.381-3.162-1.1-5.315l-.1-.022c-.029,0-.05-.014-.079-.014a3.661,3.661,0,0,1-1.073,1.9A7.924,7.924,0,0,1,9,89.628a9.333,9.333,0,0,0,9.607,9.843C21.441,99.443,26.155,97.754,27.571,94.95ZM25.282,80.987v-.715a1.434,1.434,0,0,0-.143-.537.716.716,0,0,1-.072-.257.761.761,0,0,1-.307.021,14.647,14.647,0,0,1-4.543-.029.626.626,0,0,1-.093.115A11.924,11.924,0,0,0,16.8,83a27.9,27.9,0,0,1,8.463-1.423C25.261,81.4,25.282,81.2,25.282,80.987Zm-.5-8.226a4.123,4.123,0,0,0-.121-.752c-.265-.057-.537-.114-.823-.171-.15-.022-.315-.043-.486-.065a.708.708,0,0,1-.05.236c.007.008.007.036,0,.093a1.929,1.929,0,0,0,.007.2c.007.093.007.193.007.286a2.636,2.636,0,0,1-.029.35h.565A.581.581,0,0,1,24.781,72.761Zm-.737,5.422c-.028-.673.072-1.381.008-2.046-.043-.486-.151-1.166-.236-1.688-1.3.1-2.7-.737-3.942-1.109a21.87,21.87,0,0,1,.672,4.721A13.994,13.994,0,0,0,24.044,78.183ZM23.451,94.1c-.358-.036-.723-.057-1.088-.057a15.731,15.731,0,0,1-4.149-.794,4.888,4.888,0,0,0,3.549,1.824C22.635,95.151,23.007,94.628,23.451,94.1ZM19.116,78.576c.007-.007.014-.007.021-.014a20.672,20.672,0,0,0-.522-4.342,14.819,14.819,0,0,0-4.864,1.452c-.279.157-.615.351-.973.565a10.647,10.647,0,0,1,2.611,1.116c.715.458,1.237,1.159,1.974,1.545.286.15.565.279.83.444C18.479,79.1,18.787,78.848,19.116,78.576Zm-.837-12.554c.672.093,1.216-.536.665-1.366a2.942,2.942,0,0,0-2.318-.88c.072.129.136.257.208.4a4.783,4.783,0,0,1,.307,1.774C17.521,65.994,17.935,65.979,18.279,66.022Zm.88,1.474a4.011,4.011,0,0,1-1.331-.1c-.315-.036-.708.007-1.051-.036a.681.681,0,0,1-.236.15c-.086.386-.179.765-.279,1.152-.222.837.379.314,1.158.572.129.043.265.079.4.114C18.172,68.848,18.629,68.175,19.159,67.5ZM17.106,80.315a4.366,4.366,0,0,1-.837-.494,11.638,11.638,0,0,0-1.61-1.23,17.388,17.388,0,0,0-2.968-1.124,1.567,1.567,0,0,1-.587-.114,8.285,8.285,0,0,0-2.525,2.568,55.191,55.191,0,0,0-2.933,5.844c-.479,1.388,1.052,1.853,2.182,2.1.422.093,5.122.845,5.436-.1.387-1.151,1.081-2.253,1.431-3.4A8.74,8.74,0,0,1,17.106,80.315ZM15.739,66.222c-.014-.593-.171-2.768-1.273-2.031-.186.121-.365.25-.544.393a3.5,3.5,0,0,1-.25.894C14.366,65.657,15.038,66.222,15.739,66.222Z"></path><path d="M83.088,99.092c.086,4.407-.543,9.6-4.871,11.96a.617.617,0,0,1-.322.086c-.014.007-.022.015-.036.015-5.286.415-7.933-3.312-7.454-8.406.344-3.591,1.817-10,6.009-11.18C80.871,90.308,83.01,95.358,83.088,99.092Zm-5.443,10.637c2.782-1.638,4.284-5.787,4.084-8.87A13.557,13.557,0,0,0,81,95.952c-.515-1.159-1.423-3.641-3.29-3.412,2.818,1.266,3.29,5.83,3.312,8.555.021,3.076-2.282,6.867-5.158,8.52A7.075,7.075,0,0,0,77.645,109.729Zm1.287-8.77c.172-.007.336-.029.508-.021a9.429,9.429,0,0,0-.393-1.367,8.357,8.357,0,0,0-.93-.157c-.029.021-.043.05-.079.072-.594.371-1.431.679-1.581,1.444a8.438,8.438,0,0,0-.15,1.682c.944.25,1.91.371,2.868.529a7.017,7.017,0,0,0,.222-.773h-.029c.051.029-.135,0-.164,0l-.272.022C78.009,102.426,78.009,101,78.932,100.959ZM76.979,97.8c.472.1.945.151,1.424.215a48.523,48.523,0,0,0-2.332-4.385.448.448,0,0,1-.258-.086,10.726,10.726,0,0,0-2.446,3.391C74.576,97.132,75.785,97.54,76.979,97.8Zm-2.947,11.052a8.733,8.733,0,0,0,4.578-4.363c-1.373-.229-2.739-.451-4.1-.694a7.924,7.924,0,0,1-2.711-.608C71.743,105.559,72.387,107.7,74.032,108.849Zm1.209-8.82a2.237,2.237,0,0,1,.787-.966,11.439,11.439,0,0,1-1.2-.221,12.841,12.841,0,0,0-1.974-.565.427.427,0,0,1-.05-.022c-.158.408-.294.816-.415,1.231a28.732,28.732,0,0,0,2.825.636C75.227,100.094,75.227,100.058,75.241,100.029Zm-.365,2.418c0-.3.014-.608.043-.908a4.037,4.037,0,0,1-1.23-.258,5.157,5.157,0,0,0-1.495-.386.49.49,0,0,1-.136-.036c-.057.308-.108.615-.15.923a.755.755,0,0,1,.558.157A4.549,4.549,0,0,0,74.876,102.447Z"></path></g></svg>