<svg xmlns="http://www.w3.org/2000/svg" xmlns:xlink="http://www.w3.org/1999/xlink" version="1.1" x="0px" y="0px" viewBox="0 0 100 100" enable-background="new 0 0 100 100" xml:space="preserve"><g><path fill="none" d="M40.027,60.494c-2.888-4.082-8.379-5.64-13.347-3.788l-10.069,3.747C20.43,72.685,30.714,81.881,43.27,84.326   c-0.211-4.605-0.67-13.275-1.344-19.004C41.725,63.614,41.086,61.99,40.027,60.494z"></path><path fill="none" d="M68.547,54.489c-0.585-0.058-1.08-0.086-1.511-0.086c-2.706,0-3.756,1.059-7.235,4.568l-1.179,1.186   c-2.773,2.774-3.075,14.127-2.415,24.266C69.252,82.066,80.1,72.212,83.682,59.439C79.647,57.817,71.844,54.819,68.547,54.489z"></path><path fill="none" d="M50,15.019c-18.073,0-33.03,13.675-34.795,31.448c8.904-3.516,23.728-8.669,34.103-8.669   c0.341,0,0.675,0.004,1.005,0.016c10.541,0.364,25.518,5.359,34.487,8.716C83.064,28.726,68.098,15.019,50,15.019z"></path><circle fill="none" cx="49.356" cy="51.075" r="5.757"></circle><path fill="none" d="M50,8.354c-22.964,0-41.646,18.683-41.646,41.647c0,22.963,18.682,41.645,41.646,41.645   c22.963,0,41.646-18.682,41.646-41.645C91.646,27.037,72.964,8.354,50,8.354z M46.165,87.554c-0.302,0.281-0.706,0.438-1.129,0.438   l-0.174-0.009c-15.426-2.088-27.933-13.127-31.914-28.129c-0.223-0.838,0.223-1.7,1.036-2.003l11.526-4.288   c6.395-2.375,13.491-0.323,17.254,4.993c1.386,1.961,2.224,4.105,2.491,6.373c0.791,6.728,1.281,17.149,1.455,21.317   C46.732,86.741,46.534,87.219,46.165,87.554z M49.356,60.186c-5.023,0-9.111-4.087-9.111-9.111s4.087-9.111,9.111-9.111   c5.024,0,9.111,4.087,9.111,9.111S54.38,60.186,49.356,60.186z M87.304,58.819c-3.642,15.46-16.674,27.195-32.429,29.199   l-0.211,0.013c-0.388,0-0.766-0.135-1.065-0.383c-0.347-0.281-0.57-0.706-0.607-1.162c-0.687-8.816-1.177-24.265,3.256-28.699   l1.171-1.177c4.22-4.256,5.956-6.02,11.462-5.457c3.94,0.392,12.609,3.759,17.425,5.73C87.062,57.188,87.492,58.021,87.304,58.819z    M87.596,50.395c-0.279,0.198-0.614,0.305-0.963,0.305c-0.212,0-0.419-0.04-0.617-0.119c-6.964-2.696-24.421-9.021-35.817-9.415   c-11.044-0.371-28.993,6.445-36.195,9.399c-0.533,0.216-1.123,0.15-1.586-0.168c-0.471-0.325-0.741-0.858-0.727-1.427   C12.245,28.052,29.073,11.666,50,11.666c20.932,0,37.759,16.389,38.309,37.312C88.324,49.543,88.058,50.072,87.596,50.395z"></path><path d="M50,5C25.187,5,5,25.187,5,50.001C5,74.814,25.187,95,50,95C74.813,95,95,74.814,95,50.001C95,25.187,74.813,5,50,5z    M50,91.646c-22.964,0-41.646-18.682-41.646-41.645C8.354,27.037,27.036,8.354,50,8.354c22.963,0,41.646,18.683,41.646,41.647   C91.646,72.965,72.964,91.646,50,91.646z"></path><path d="M50,11.666c-20.927,0-37.755,16.386-38.31,37.305c-0.015,0.569,0.255,1.102,0.727,1.427   c0.463,0.318,1.053,0.384,1.586,0.168c7.202-2.954,25.151-9.771,36.195-9.399c11.396,0.394,28.853,6.718,35.817,9.415   c0.198,0.079,0.406,0.119,0.617,0.119c0.349,0,0.683-0.107,0.963-0.305c0.462-0.323,0.728-0.853,0.713-1.417   C87.76,28.055,70.932,11.666,50,11.666z M50.314,37.815c-0.33-0.012-0.664-0.016-1.005-0.016c-10.376,0-25.2,5.153-34.103,8.669   C16.97,28.695,31.927,15.019,50,15.019c18.098,0,33.064,13.707,34.8,31.511C75.832,43.174,60.854,38.178,50.314,37.815z"></path><path d="M42.765,58.555c-3.763-5.316-10.859-7.369-17.254-4.993L13.985,57.85c-0.813,0.303-1.259,1.165-1.036,2.003   c3.98,15.002,16.487,26.041,31.914,28.129l0.174,0.009c0.424,0,0.827-0.157,1.129-0.438c0.368-0.335,0.567-0.812,0.546-1.308   c-0.174-4.168-0.664-14.589-1.455-21.317C44.989,62.66,44.152,60.516,42.765,58.555z M16.611,60.453l10.069-3.747   c4.968-1.851,10.459-0.294,13.347,3.788c1.059,1.496,1.698,3.12,1.898,4.827c0.674,5.729,1.133,14.399,1.344,19.004   C30.714,81.881,20.43,72.685,16.611,60.453z"></path><path d="M86.307,56.883c-4.816-1.972-13.485-5.338-17.425-5.73c-5.506-0.562-7.242,1.201-11.462,5.457l-1.171,1.177   c-4.433,4.434-3.943,19.883-3.256,28.699c0.037,0.455,0.26,0.881,0.607,1.162c0.299,0.248,0.677,0.383,1.065,0.383l0.211-0.013   c15.755-2.004,28.787-13.739,32.429-29.199C87.492,58.021,87.062,57.188,86.307,56.883z M56.207,84.422   c-0.66-10.138-0.359-21.492,2.415-24.266l1.179-1.186c3.479-3.509,4.529-4.568,7.235-4.568c0.431,0,0.926,0.028,1.511,0.086   c3.297,0.33,11.101,3.329,15.136,4.95C80.1,72.212,69.252,82.066,56.207,84.422z"></path><path d="M58.467,51.075c0-5.024-4.087-9.111-9.111-9.111c-5.023,0-9.111,4.087-9.111,9.111s4.087,9.111,9.111,9.111   C54.38,60.186,58.467,56.099,58.467,51.075z M49.356,56.833c-3.175,0-5.757-2.583-5.757-5.757s2.582-5.758,5.757-5.758   s5.758,2.583,5.758,5.758S52.53,56.833,49.356,56.833z"></path></g></svg>